<svg width="14" height="17" viewBox="0 0 14 17" fill="none" xmlns="http://www.w3.org/2000/svg">
<path d="M12.36 0.522522H1.64C0.736 0.522522 0 1.25852 0 2.17052V12.9865C0 13.8985 0.736 14.6345 1.64 14.6345H10.712L10.288 13.1545L11.312 14.1065L12.28 15.0025L14 16.5225V2.17052C14 1.25852 13.264 0.522522 12.36 0.522522ZM9.272 10.9705C9.272 10.9705 8.984 10.6265 8.744 10.3225C9.792 10.0265 10.192 9.37052 10.192 9.37052C9.864 9.58652 9.552 9.73852 9.272 9.84252C8.872 10.0105 8.488 10.1225 8.112 10.1865C7.42684 10.3127 6.72416 10.31 6.04 10.1785C5.63834 10.0999 5.2447 9.98478 4.864 9.83452C4.66333 9.75735 4.4682 9.66647 4.28 9.56252C4.256 9.54652 4.232 9.53852 4.208 9.52252C4.192 9.51452 4.184 9.50652 4.176 9.49852C4.032 9.41852 3.952 9.36252 3.952 9.36252C3.952 9.36252 4.336 10.0025 5.352 10.3065C5.112 10.6105 4.816 10.9705 4.816 10.9705C3.048 10.9145 2.376 9.75452 2.376 9.75452C2.376 7.17852 3.528 5.09052 3.528 5.09052C4.68 4.22652 5.776 4.25052 5.776 4.25052L5.856 4.34652C4.416 4.76252 3.752 5.39452 3.752 5.39452C3.752 5.39452 3.928 5.29852 4.224 5.16252C5.08 4.78652 5.76 4.68252 6.04 4.65852C6.088 4.65052 6.128 4.64252 6.176 4.64252C7.56328 4.45475 8.97416 4.71842 10.2 5.39452C10.2 5.39452 9.568 4.79452 8.208 4.37852L8.32 4.25052C8.32 4.25052 9.416 4.22652 10.568 5.09052C10.568 5.09052 11.72 7.17852 11.72 9.75452C11.72 9.75452 11.04 10.9145 9.272 10.9705Z" fill="white"/>
</svg>
