<svg aria-hidden="true" focusable="false" data-prefix="fal" data-icon="ellipsis-stroke-vertical" class="svg-inline--fa fa-ellipsis-stroke-vertical fa-w-6" role="img" xmlns="http://www.w3.org/2000/svg" viewBox="0 0 192 512"><path fill="white" d="M96 384c-35.35 0-64 28.65-64 64s28.65 64 64 64s64-28.65 64-64S131.3 384 96 384zM96 480c-17.64 0-32-14.36-32-32s14.36-32 32-32s32 14.36 32 32S113.6 480 96 480zM96 128c35.35 0 64-28.65 64-64s-28.65-64-64-64S32 28.65 32 64S60.65 128 96 128zM96 32c17.64 0 32 14.36 32 32s-14.36 32-32 32S64 81.64 64 64S78.36 32 96 32zM96 192C60.65 192 32 220.7 32 256s28.65 64 64 64s64-28.65 64-64S131.3 192 96 192zM96 288C78.36 288 64 273.6 64 256s14.36-32 32-32s32 14.36 32 32S113.6 288 96 288z"></path></svg>