<svg xmlns="http://www.w3.org/2000/svg" viewBox="0 0 500 500"><g id="freepik--Floor--inject-2"><ellipse cx="250" cy="350.63" rx="220.89" ry="127.53" style="fill:#f5f5f5"></ellipse></g><g id="freepik--Shadows--inject-2"><path d="M426.15,395.31l-54.48,31.45c-4.73,2.73-13,2.39-18.43-.76l-51.83-29.93c-5.46-3.15-6.05-7.91-1.33-10.64L354.56,354c4.73-2.73,13-2.39,18.43.76l51.84,29.93C430.28,387.82,430.87,392.58,426.15,395.31Z" style="fill:#e0e0e0"></path><ellipse cx="307.53" cy="418.7" rx="42.95" ry="26.66" style="fill:#e0e0e0"></ellipse><ellipse cx="98.8" cy="388.11" rx="41.96" ry="24.22" style="fill:#e0e0e0"></ellipse><path d="M268.28,252.74,86.2,357.87a8.29,8.29,0,0,0,0,14.36l99.37,57.37a22.83,22.83,0,0,0,22.86,0l174.8-100.92a8.29,8.29,0,0,0,0-14.36L276.58,252.74A8.31,8.31,0,0,0,268.28,252.74Z" style="fill:#e0e0e0"></path></g><g id="freepik--Desk--inject-2"><path d="M214.25,424.41a7.27,7.27,0,0,1-6.58,0c-1.82-1.05-1.82-2.75,0-3.8a7.27,7.27,0,0,1,6.58,0C216.07,421.66,216.07,423.36,214.25,424.41Z" style="fill:#455a64"></path><rect x="206.32" y="318.13" width="9.31" height="104.27" style="fill:#455a64"></rect><path d="M105.11,361.81a7.27,7.27,0,0,1-6.58,0c-1.82-1.05-1.82-2.75,0-3.8a7.27,7.27,0,0,1,6.58,0C106.93,359.06,106.93,360.76,105.11,361.81Z" style="fill:#455a64"></path><rect x="97.17" y="255.53" width="9.31" height="104.27" style="fill:#455a64"></rect><path d="M376.39,329.84a7.27,7.27,0,0,1-6.58,0c-1.82-1-1.82-2.75,0-3.8a7.27,7.27,0,0,1,6.58,0C378.21,327.09,378.21,328.79,376.39,329.84Z" style="fill:#455a64"></path><rect x="368.45" y="223.57" width="9.31" height="104.27" style="fill:#455a64"></rect><path d="M267.25,267.24a7.27,7.27,0,0,1-6.58,0c-1.82-1.05-1.82-2.75,0-3.8a7.27,7.27,0,0,1,6.58,0C269.07,264.49,269.07,266.19,267.25,267.24Z" style="fill:#455a64"></path><rect x="259.31" y="160.97" width="9.31" height="104.27" style="fill:#455a64"></rect><polygon points="73.76 256.71 73.76 262.87 197 334.03 197 327.86 73.76 256.71" style="fill:#3B6AFF"></polygon><polygon points="73.76 256.71 73.76 262.87 197 334.03 197 327.86 73.76 256.71" style="opacity:0.30000000000000004"></polygon><polygon points="395.67 213.16 197 327.86 197 334.03 395.67 219.32 395.67 213.16" style="fill:#3B6AFF"></polygon><polygon points="395.67 213.16 197 327.86 197 334.03 395.67 219.32 395.67 213.16" style="fill:#fff;opacity:0.30000000000000004"></polygon><polygon points="272.43 142.01 73.76 256.71 197 327.86 395.67 213.16 272.43 142.01" style="fill:#3B6AFF"></polygon></g><g id="freepik--Papers--inject-2"><path d="M69.5,324.45v60.21h0c0,4.52,3,9,9,12.51,12,6.91,31.37,6.91,43.34,0,6-3.46,9-8,9-12.51h0V324.45Z" style="fill:#37474f"></path><ellipse cx="100.15" cy="324.19" rx="30.65" ry="17.69" style="fill:#455a64"></ellipse><path d="M121.15,332.52a21.67,21.67,0,0,1-3,2.07c-.2.12-.41.24-.63.35a29.66,29.66,0,0,1-4.32,1.89c-.59.2-1.21.4-1.83.56a33.85,33.85,0,0,1-4.32,1c-1.25.21-2.53.36-3.8.45-.52,0-1,.07-1.55.08-1,0-2,0-2.92,0-1.21,0-2.42-.11-3.61-.25a36.75,36.75,0,0,1-4.52-.78c-.6-.14-1.18-.28-1.76-.46a29.35,29.35,0,0,1-6.78-2.8,22.05,22.05,0,0,1-2.64-1.78c-5.81-4.62-6.37-10.75-1.71-15.67a18.64,18.64,0,0,1,4.35-3.36,28.34,28.34,0,0,1,5.63-2.45c.37-.13.77-.25,1.15-.35a32.52,32.52,0,0,1,3.17-.75c1.16-.22,2.33-.4,3.53-.52a43.19,43.19,0,0,1,11.46.32l.35.05a34.65,34.65,0,0,1,4,.9,29.83,29.83,0,0,1,5.29,2c.51.24,1,.51,1.49.79a22.63,22.63,0,0,1,2.23,1.46,16.19,16.19,0,0,1,2.85,2.72C127,322.63,126.33,328.21,121.15,332.52Z" style="fill:#263238"></path><path d="M101.09,246.32V265h9.58V252.29S107.1,247.08,101.09,246.32Z" style="fill:#3B6AFF"></path><path d="M101.09,246.32V265h9.58V252.29S107.1,247.08,101.09,246.32Z" style="fill:#fff;opacity:0.30000000000000004"></path><path d="M107.07,251v87.37c-1.25.21-2.53.36-3.8.45-.52,0-1,.07-1.55.08-1,0-2,0-2.92,0-1.21,0-2.42-.11-3.61-.25a36.75,36.75,0,0,1-4.52-.78c-.6-.14-1.18-.28-1.76-.46V251Z" style="fill:#3B6AFF"></path><path d="M107.07,251v87.37c-1.25.21-2.53.36-3.8.45-.52,0-1,.07-1.55.08-1,0-2,0-2.92,0-1.21,0-2.42-.11-3.61-.25a36.75,36.75,0,0,1-4.52-.78c-.6-.14-1.18-.28-1.76-.46V251Z" style="fill:#fff;opacity:0.7000000000000001"></path><path d="M111.39,253.92v83.47a33.85,33.85,0,0,1-4.32,1c-1.25.21-2.53.36-3.8.45-.52,0-1,.07-1.55.08V261.09a15.44,15.44,0,0,0,5.35-1.84,9.48,9.48,0,0,0,3.61-3.54A5.84,5.84,0,0,0,111.39,253.92Z" style="fill:#3B6AFF"></path><path d="M111.39,253.92v83.47a33.85,33.85,0,0,1-4.32,1c-1.25.21-2.53.36-3.8.45-.52,0-1,.07-1.55.08V261.09a15.44,15.44,0,0,0,5.35-1.84,9.48,9.48,0,0,0,3.61-3.54A5.84,5.84,0,0,0,111.39,253.92Z" style="fill:#fff;opacity:0.5"></path><path d="M102.17,261.46a.46.46,0,0,1-.08-.91,15.44,15.44,0,0,0,4.82-1.74c2.3-1.32,3.56-3.06,3.56-4.88s-1.26-3.56-3.56-4.89A18.13,18.13,0,0,0,98,246.91a.46.46,0,1,1,0-.91,19.06,19.06,0,0,1,9.38,2.25c2.59,1.5,4,3.51,4,5.68s-1.43,4.18-4,5.68a16.69,16.69,0,0,1-5.11,1.84Z" style="fill:#3B6AFF"></path><path d="M102.17,261.46a.46.46,0,0,1-.08-.91,15.44,15.44,0,0,0,4.82-1.74c2.3-1.32,3.56-3.06,3.56-4.88s-1.26-3.56-3.56-4.89A18.13,18.13,0,0,0,98,246.91a.46.46,0,1,1,0-.91,19.06,19.06,0,0,1,9.38,2.25c2.59,1.5,4,3.51,4,5.68s-1.43,4.18-4,5.68a16.69,16.69,0,0,1-5.11,1.84Z" style="fill:#fff;opacity:0.5"></path><path d="M104.41,247.54c3.55,2,3.55,5.36,0,7.41a14.17,14.17,0,0,1-12.84,0c-3.55-2-3.55-5.37,0-7.41A14.17,14.17,0,0,1,104.41,247.54Z" style="fill:#3B6AFF"></path><path d="M104.41,247.54c3.55,2,3.55,5.36,0,7.41a14.17,14.17,0,0,1-12.84,0c-3.55-2-3.55-5.37,0-7.41A14.17,14.17,0,0,1,104.41,247.54Z" style="fill:#fff;opacity:0.5"></path><path d="M121.2,278.43l-2,13.86,7.09,1,1.37-9.44A11.36,11.36,0,0,0,121.2,278.43Z" style="fill:#3B6AFF"></path><path d="M121.2,278.43l-2,13.86,7.09,1,1.37-9.44A11.36,11.36,0,0,0,121.2,278.43Z" style="fill:#fff;opacity:0.30000000000000004"></path><path d="M125.13,282.53l-.83,5.71-.06.41,0,.37-.57,3.91-3.22,22.31-2.86,19.7a29.66,29.66,0,0,1-4.32,1.89c-.59.2-1.21.4-1.83.56a33.85,33.85,0,0,1-4.32,1c-1.25.21-2.53.36-3.8.45l3.8-26.32.35-2.4,4-27.44.3-2.06h0l9,1.31,4.41.64Z" style="fill:#3B6AFF"></path><path d="M125.13,282.53l-.83,5.71-.06.41,0,.37-.57,3.91-3.22,22.31-2.86,19.7a29.66,29.66,0,0,1-4.32,1.89c-.59.2-1.21.4-1.83.56a33.85,33.85,0,0,1-4.32,1c-1.25.21-2.53.36-3.8.45l3.8-26.32.35-2.4,4-27.44.3-2.06h0l9,1.31,4.41.64Z" style="fill:#fff;opacity:0.7000000000000001"></path><path d="M128,285.17,123.25,318l-2.1,14.56a21.67,21.67,0,0,1-3,2.07c-.2.12-.41.24-.63.35a29.66,29.66,0,0,1-4.32,1.89L116.68,313l3-20.63.42-2.93a11.78,11.78,0,0,0,4.15-.78,7,7,0,0,0,3-2.22A4.59,4.59,0,0,0,128,285.17Z" style="fill:#3B6AFF"></path><path d="M128,285.17,123.25,318l-2.1,14.56a21.67,21.67,0,0,1-3,2.07c-.2.12-.41.24-.63.35a29.66,29.66,0,0,1-4.32,1.89L116.68,313l3-20.63.42-2.93a11.78,11.78,0,0,0,4.15-.78,7,7,0,0,0,3-2.22A4.59,4.59,0,0,0,128,285.17Z" style="fill:#fff;opacity:0.5"></path><path d="M120.38,289.75a.33.33,0,0,1-.29-.32.34.34,0,0,1,.32-.36,11.73,11.73,0,0,0,3.76-.77c1.84-.73,3-1.88,3.16-3.23s-.56-2.77-2.11-4a13.7,13.7,0,0,0-6.38-2.53.34.34,0,1,1,.1-.67,14.2,14.2,0,0,1,6.7,2.67c1.75,1.38,2.59,3,2.36,4.63s-1.5,2.94-3.58,3.77a12.23,12.23,0,0,1-4,.81Z" style="fill:#3B6AFF"></path><path d="M120.38,289.75a.33.33,0,0,1-.29-.32.34.34,0,0,1,.32-.36,11.73,11.73,0,0,0,3.76-.77c1.84-.73,3-1.88,3.16-3.23s-.56-2.77-2.11-4a13.7,13.7,0,0,0-6.38-2.53.34.34,0,1,1,.1-.67,14.2,14.2,0,0,1,6.7,2.67c1.75,1.38,2.59,3,2.36,4.63s-1.5,2.94-3.58,3.77a12.23,12.23,0,0,1-4,.81Z" style="fill:#fff;opacity:0.5"></path><path d="M123.53,279.69c2.4,1.9,2,4.35-.8,5.49a10.61,10.61,0,0,1-9.5-1.38c-2.4-1.89-2-4.35.79-5.48A10.62,10.62,0,0,1,123.53,279.69Z" style="fill:#3B6AFF"></path><path d="M123.53,279.69c2.4,1.9,2,4.35-.8,5.49a10.61,10.61,0,0,1-9.5-1.38c-2.4-1.89-2-4.35.79-5.48A10.62,10.62,0,0,1,123.53,279.69Z" style="fill:#fff;opacity:0.5"></path><path d="M82.53,268.32l1.68,15.34,7.85-.86-1.14-10.45S87.53,268.4,82.53,268.32Z" style="fill:#3B6AFF"></path><path d="M82.53,268.32l1.68,15.34,7.85-.86-1.14-10.45S87.53,268.4,82.53,268.32Z" style="fill:#fff;opacity:0.30000000000000004"></path><path d="M95.19,338.63a36.75,36.75,0,0,1-4.52-.78c-.6-.14-1.18-.28-1.76-.46a29.35,29.35,0,0,1-6.78-2.8,22.05,22.05,0,0,1-2.64-1.78l-1.71-15.67L73,273.23h0l10-1.09,4.89-.54h0l.69,6.34,0,.43,0,.43.27,2.41.2,1.91,3,27.11Z" style="fill:#3B6AFF"></path><path d="M95.19,338.63a36.75,36.75,0,0,1-4.52-.78c-.6-.14-1.18-.28-1.76-.46a29.35,29.35,0,0,1-6.78-2.8,22.05,22.05,0,0,1-2.64-1.78l-1.71-15.67L73,273.23h0l10-1.09,4.89-.54h0l.69,6.34,0,.43,0,.43.27,2.41.2,1.91,3,27.11Z" style="fill:#fff;opacity:0.7000000000000001"></path><path d="M95.19,338.63a36.75,36.75,0,0,1-4.52-.78l-1.76-16.07-1.15-10.45-3-27.72-.35-3.25a12.45,12.45,0,0,0,4.23-2c.11-.08.22-.15.31-.23a7.77,7.77,0,0,0,2.32-3,4.93,4.93,0,0,0,.42-1.54l4,36.08,3.19,29.17C97.59,338.85,96.38,338.77,95.19,338.63Z" style="fill:#3B6AFF"></path><path d="M95.19,338.63a36.75,36.75,0,0,1-4.52-.78l-1.76-16.07-1.15-10.45-3-27.72-.35-3.25a12.45,12.45,0,0,0,4.23-2c.11-.08.22-.15.31-.23a7.77,7.77,0,0,0,2.32-3,4.93,4.93,0,0,0,.42-1.54l4,36.08,3.19,29.17C97.59,338.85,96.38,338.77,95.19,338.63Z" style="fill:#fff;opacity:0.5"></path><path d="M84.78,280.63a.38.38,0,0,1-.4-.27.37.37,0,0,1,.24-.47,12.71,12.71,0,0,0,3.8-1.86c1.77-1.29,2.65-2.82,2.48-4.32s-1.35-2.8-3.35-3.68a14.92,14.92,0,0,0-7.51-.95.36.36,0,0,1-.41-.33.39.39,0,0,1,.33-.42,15.73,15.73,0,0,1,7.89,1c2.26,1,3.61,2.51,3.8,4.29s-.79,3.55-2.78,5a13.58,13.58,0,0,1-4,2Z" style="fill:#3B6AFF"></path><path d="M84.78,280.63a.38.38,0,0,1-.4-.27.37.37,0,0,1,.24-.47,12.71,12.71,0,0,0,3.8-1.86c1.77-1.29,2.65-2.82,2.48-4.32s-1.35-2.8-3.35-3.68a14.92,14.92,0,0,0-7.51-.95.36.36,0,0,1-.41-.33.39.39,0,0,1,.33-.42,15.73,15.73,0,0,1,7.89,1c2.26,1,3.61,2.51,3.8,4.29s-.79,3.55-2.78,5a13.58,13.58,0,0,1-4,2Z" style="fill:#fff;opacity:0.5"></path><path d="M85.36,269c3.09,1.36,3.39,4.08.67,6.07a11.7,11.7,0,0,1-10.53,1.15c-3.09-1.35-3.38-4.08-.66-6.07A11.68,11.68,0,0,1,85.36,269Z" style="fill:#3B6AFF"></path><path d="M85.36,269c3.09,1.36,3.39,4.08.67,6.07a11.7,11.7,0,0,1-10.53,1.15c-3.09-1.35-3.38-4.08-.66-6.07A11.68,11.68,0,0,1,85.36,269Z" style="fill:#fff;opacity:0.5"></path></g><g id="freepik--Palette--inject-2"><path d="M326.57,204.37l-12,6.91a3.32,3.32,0,0,1-3-.13l-40.76-23.53c-.89-.51-1-1.28-.21-1.73l12-6.91a3.33,3.33,0,0,1,3,.13l40.75,23.53C327.24,203.15,327.33,203.92,326.57,204.37Z" style="fill:#263238"></path><polygon points="291.8 185.88 282.58 191.2 274.98 186.82 284.2 181.5 291.8 185.88" style="fill:#3B6AFF"></polygon><polygon points="301.81 191.66 292.59 196.98 285 192.6 294.21 187.28 301.81 191.66" style="fill:#3B6AFF"></polygon><polygon points="311.82 197.44 302.61 202.77 295.01 198.38 304.23 193.06 311.82 197.44" style="fill:#3B6AFF"></polygon><polygon points="321.84 203.23 312.62 208.55 305.03 204.16 314.24 198.84 321.84 203.23" style="fill:#3B6AFF"></polygon><polygon points="291.8 185.88 282.58 191.2 274.98 186.82 284.2 181.5 291.8 185.88" style="opacity:0.4"></polygon><polygon points="301.81 191.66 292.59 196.98 285 192.6 294.21 187.28 301.81 191.66" style="opacity:0.5"></polygon><polygon points="311.82 197.44 302.61 202.77 295.01 198.38 304.23 193.06 311.82 197.44" style="opacity:0.6000000000000001"></polygon><polygon points="321.84 203.23 312.62 208.55 305.03 204.16 314.24 198.84 321.84 203.23" style="opacity:0.8"></polygon><path d="M328.89,191.67l-10.15,9.38a3.37,3.37,0,0,1-3,.54l-44.94-14c-1-.3-1.24-1-.59-1.64l10.15-9.38a3.35,3.35,0,0,1,3-.54l44.94,14C329.27,190.33,329.54,191.06,328.89,191.67Z" style="fill:#37474f"></path><polygon points="290.89 181.3 283.08 188.53 274.7 185.92 282.52 178.7 290.89 181.3" style="fill:#3B6AFF"></polygon><polygon points="301.94 184.74 294.12 191.96 285.75 189.35 293.56 182.13 301.94 184.74" style="fill:#3B6AFF"></polygon><polygon points="312.98 188.17 305.17 195.39 296.79 192.78 304.61 185.56 312.98 188.17" style="fill:#3B6AFF"></polygon><polygon points="324.02 191.6 316.21 198.82 307.83 196.22 315.65 188.99 324.02 191.6" style="fill:#3B6AFF"></polygon><polygon points="290.89 181.3 283.08 188.53 274.7 185.92 282.52 178.7 290.89 181.3" style="fill:#fff;opacity:0.1"></polygon><polygon points="312.98 188.17 305.17 195.39 296.79 192.78 304.61 185.56 312.98 188.17" style="opacity:0.1"></polygon><polygon points="324.02 191.6 316.21 198.82 307.83 196.22 315.65 188.99 324.02 191.6" style="opacity:0.2"></polygon><path d="M328.48,179.64l-8,11.27a3.33,3.33,0,0,1-2.78,1.13l-46.85-4.42c-1-.09-1.43-.76-.91-1.48l8-11.27a3.36,3.36,0,0,1,2.78-1.14l46.85,4.42C328.58,178.25,329,178.91,328.48,179.64Z" style="fill:#455a64"></path><polygon points="289.17 177.31 283 185.99 274.27 185.17 280.43 176.49 289.17 177.31" style="fill:#3B6AFF"></polygon><polygon points="300.68 178.4 294.52 187.07 285.78 186.25 291.95 177.57 300.68 178.4" style="fill:#3B6AFF"></polygon><polygon points="312.19 179.48 306.03 188.16 297.3 187.34 303.46 178.66 312.19 179.48" style="fill:#3B6AFF"></polygon><polygon points="323.7 180.57 317.54 189.25 308.81 188.42 314.97 179.75 323.7 180.57" style="fill:#3B6AFF"></polygon><polygon points="289.17 177.31 283 185.99 274.27 185.17 280.43 176.49 289.17 177.31" style="fill:#fff;opacity:0.8"></polygon><polygon points="300.68 178.4 294.52 187.07 285.78 186.25 291.95 177.57 300.68 178.4" style="fill:#fff;opacity:0.6000000000000001"></polygon><polygon points="312.19 179.48 306.03 188.16 297.3 187.34 303.46 178.66 312.19 179.48" style="fill:#fff;opacity:0.4"></polygon><polygon points="323.7 180.57 317.54 189.25 308.81 188.42 314.97 179.75 323.7 180.57" style="fill:#fff;opacity:0.2"></polygon><path d="M268.37,190.27a4,4,0,0,1-3.88-2.94,4,4,0,1,1,7.76-2.17l-.78.21a3.22,3.22,0,0,0-6.21,1.74,3.24,3.24,0,0,0,4,2.24,3.2,3.2,0,0,0,1.94-1.53l.7.4a4.05,4.05,0,0,1-3.51,2.05Z" style="fill:#e0e0e0"></path></g><g id="freepik--Book--inject-2"><path d="M211.69,284.5l-33.86,19.55L135.1,279.38,169,259.79a2.89,2.89,0,0,1,2.9,0l39.76,22.95A1,1,0,0,1,211.69,284.5Z" style="fill:#3B6AFF"></path><path d="M211.69,284.5l-33.86,19.55L135.1,279.38,169,259.79a2.89,2.89,0,0,1,2.9,0l39.76,22.95A1,1,0,0,1,211.69,284.5Z" style="opacity:0.7000000000000001"></path><path d="M209.35,283.78,177.83,302l-39.77-23,31.58-18.23a2.71,2.71,0,0,1,2.7,0l37,21.37A.94.94,0,0,1,209.35,283.78Z" style="fill:#fff"></path><polygon points="177.83 301.98 177.83 298.43 209.82 279.96 209.82 282.99 177.83 301.98" style="fill:#fff"></polygon><polygon points="177.83 301.98 177.83 298.43 138.06 275.46 138.06 279.01 177.83 301.98" style="fill:#e0e0e0"></polygon><path d="M211.69,278.88l-33.86,19.55L135.1,273.76,169,254.17a2.89,2.89,0,0,1,2.9,0l39.76,23A1,1,0,0,1,211.69,278.88Z" style="fill:#3B6AFF"></path><path d="M211.69,278.88l-33.86,19.55L135.1,273.76,169,254.17a2.89,2.89,0,0,1,2.9,0l39.76,23A1,1,0,0,1,211.69,278.88Z" style="opacity:0.5"></path><path d="M173.42,301.5a.76.76,0,0,1-.64,0,.74.74,0,0,1-.4-.67v-3.21a4.2,4.2,0,0,1,2.05-3.61l.12-.07a.35.35,0,0,1,.38,0,.36.36,0,0,1,.19.33.67.67,0,0,0,1.34,0,1.72,1.72,0,0,0-2.59-1.48l-.12.08a5.54,5.54,0,0,0-2.71,4.75v3.21a2.11,2.11,0,0,0,1.11,1.85,2.16,2.16,0,0,0,1,.24,2.06,2.06,0,0,0,1.17-.35.7.7,0,0,0,.26-.37Z" style="fill:#fff"></path><path d="M167.09,297.85a.76.76,0,0,1-1-.71v-3.21a4.22,4.22,0,0,1,2-3.61l.13-.07a.39.39,0,0,1,.38,0,.4.4,0,0,1,.19.33.67.67,0,1,0,1.33,0,1.71,1.71,0,0,0-2.58-1.47l-.12.07a5.55,5.55,0,0,0-2.71,4.76v3.21a2.1,2.1,0,0,0,1.11,1.85,2.16,2.16,0,0,0,1,.24,2.13,2.13,0,0,0,1.16-.35.61.61,0,0,0,.26-.37Z" style="fill:#fff"></path><path d="M160.76,294.2a.74.74,0,0,1-.63,0,.76.76,0,0,1-.41-.68v-3.21a4.2,4.2,0,0,1,2.06-3.6l.12-.07a.36.36,0,0,1,.38,0,.38.38,0,0,1,.19.33.67.67,0,1,0,1.33,0,1.71,1.71,0,0,0-2.58-1.47l-.12.07a5.55,5.55,0,0,0-2.71,4.75v3.21a2.09,2.09,0,0,0,1.11,1.85,2.05,2.05,0,0,0,1,.25,2.1,2.1,0,0,0,1.16-.35.64.64,0,0,0,.26-.37Z" style="fill:#fff"></path><path d="M154.44,290.54a.75.75,0,0,1-.64,0,.77.77,0,0,1-.4-.68v-3.21a4.19,4.19,0,0,1,2-3.6l.12-.08a.38.38,0,0,1,.38,0,.36.36,0,0,1,.19.33.67.67,0,0,0,.67.67.66.66,0,0,0,.66-.67,1.7,1.7,0,0,0-2.58-1.47l-.12.07a5.55,5.55,0,0,0-2.71,4.75v3.21a2.09,2.09,0,0,0,1.11,1.85,2.05,2.05,0,0,0,1,.25,2.14,2.14,0,0,0,1.17-.35.74.74,0,0,0,.26-.37Z" style="fill:#fff"></path><path d="M148.11,286.89a.79.79,0,0,1-.64,0,.77.77,0,0,1-.4-.68V283a4.23,4.23,0,0,1,2.05-3.61l.13-.07a.38.38,0,0,1,.57.33.67.67,0,0,0,1.33,0,1.7,1.7,0,0,0-.86-1.49,1.68,1.68,0,0,0-1.72,0l-.12.07a5.55,5.55,0,0,0-2.71,4.75v3.21a2.08,2.08,0,0,0,1.11,1.85,2.07,2.07,0,0,0,2.15-.11.62.62,0,0,0,.26-.36Z" style="fill:#fff"></path><path d="M141.78,283.24a.77.77,0,0,1-1-.71v-3.21a4.21,4.21,0,0,1,2.06-3.61l.12-.07a.36.36,0,0,1,.38,0,.36.36,0,0,1,.19.33.67.67,0,0,0,1.33,0,1.69,1.69,0,0,0-.86-1.49,1.71,1.71,0,0,0-1.72,0l-.12.08a5.55,5.55,0,0,0-2.71,4.75v3.21a2.11,2.11,0,0,0,1.11,1.85,2.17,2.17,0,0,0,1,.25,2,2,0,0,0,1.16-.36.62.62,0,0,0,.26-.36Z" style="fill:#fff"></path><polygon points="216.06 270.04 179.45 291.18 131.81 263.68 168.42 242.54 216.06 270.04" style="fill:#e6e6e6"></polygon><polygon points="218.16 269.35 179.91 287.35 134.75 255.95 173 237.96 218.16 269.35" style="fill:#fafafa"></polygon><path d="M169.41,256.9a10,10,0,0,0-2.15,11.19c1.71,4,6,6.26,10.18,6.4a11.54,11.54,0,0,0,10.6-6,8.17,8.17,0,0,0,.58-6.17,10.11,10.11,0,0,0-3.87-5.13,14.53,14.53,0,0,0-8.08-2.36c-2.43-.05-5.36.17-7,2.17-.33.39.24,1,.57.57,1.38-1.65,3.68-1.9,5.7-1.93a15.19,15.19,0,0,1,7,1.39c3.67,1.82,6.28,5.9,4.88,10a10.43,10.43,0,0,1-9.08,6.59,11,11,0,0,1-10.1-4.73A9.22,9.22,0,0,1,170,257.47c.38-.34-.19-.91-.57-.57Z" style="fill:#3B6AFF"></path><path d="M175.05,268.75a6.71,6.71,0,0,0,5.58-.84,5.53,5.53,0,0,0,2.39-4.86,5,5,0,0,0-1.13-2.93c-.33-.4-.9.17-.57.57a4.59,4.59,0,0,1-.19,5.71,5.78,5.78,0,0,1-5.87,1.58.4.4,0,0,0-.21.77Z" style="fill:#3B6AFF"></path><path d="M167.33,270.68a8.2,8.2,0,0,1-5.52-4.08c-.43-.84-.76-2.14-.08-3,1-1.16,2.56-.17,3.19.79a3.37,3.37,0,0,1,.64,1.45c0,.84-1.32-.37-1.58-.62a6.36,6.36,0,0,1-1.74-3.1c-.5-2.23.49-5,3-5.36,1-.12,2.36.24,2.67,1.34.16.58-.14,1.25-.84.84a2.28,2.28,0,0,1-.9-1.54,4.08,4.08,0,0,1,3.21-4.86,4.28,4.28,0,0,1,3.09.7c.34.23,1.24.93.84,1.38-.6.65-1.24-.41-1.31-.91a2.63,2.63,0,0,1,1.8-2.6,4.11,4.11,0,0,1,3.6.61,5.31,5.31,0,0,1,1.63,1.46c.49.81-.51,1.32-1.11.79-1.17-1,.08-2.43,1.21-2.65,1.48-.29,3,.67,4.15,1.47a14,14,0,0,1,3.17,3.06c.31.41,1,0,.7-.41a15.17,15.17,0,0,0-4.25-3.85c-1.48-.89-3.41-1.65-5-.64a2.3,2.3,0,0,0-.59,3.53c.95,1,3.07.39,2.68-1.19a3.87,3.87,0,0,0-1.57-1.85,6.36,6.36,0,0,0-2.52-1.22,3.94,3.94,0,0,0-4.18,1.6c-.75,1.12-.77,3.28.82,3.73a1.41,1.41,0,0,0,1.59-.67c.36-.72-.17-1.43-.68-1.9a4.86,4.86,0,0,0-7.72,1.59,4.62,4.62,0,0,0,.32,4.46,1.71,1.71,0,0,0,1.92.75,1.38,1.38,0,0,0,.83-1.36c0-1.56-1.61-2.45-3-2.48a4.26,4.26,0,0,0-3.85,2.3,6.1,6.1,0,0,0-.19,5,7.3,7.3,0,0,0,1.27,2.13,5.05,5.05,0,0,0,2,1.59,1,1,0,0,0,1.31-1,4.43,4.43,0,0,0-.93-2.22c-.92-1.26-2.82-2.07-4.13-.88-1.11,1-.85,2.73-.28,3.94a8.66,8.66,0,0,0,3.66,3.7,9.4,9.4,0,0,0,2.42.9c.5.11.72-.67.21-.78Z" style="fill:#3B6AFF"></path><path d="M172.71,264a.71.71,0,0,1-.1.14c.07-.05,0,0,0,0l-.06.06a.52.52,0,0,1-.11.1s-.07.08,0,0l-.1.06-.14.09-.06,0h0a.48.48,0,0,1-.17.05l-.18,0s.1,0,0,0h-.33s.08,0,0,0l-.17,0s-.06,0-.08,0,0,0,0,0l-.12-.08h0l-.06-.05,0-.05c-.07-.08,0,.05,0,0l-.07-.1,0-.07v0s0,0,0,0,0-.1,0-.14a.7.7,0,0,1,0-.14c0,.09,0,.05,0,0v-.2s0-.05,0-.07,0,.06,0,0a1,1,0,0,1,0-.17s0,0,0,0,0-.05,0,0l.06-.12,0-.06c0-.05.05,0,0,0s.07-.07.1-.1l.05,0c-.05.07-.05,0,0,0l.12-.07s-.1,0,0,0l.08,0,.1,0h.16c.1,0-.08,0,0,0l.23.07c.1,0-.07,0,0,0l.12.07.18.11s.1.08,0,0l.11.1.16.15.18.19.06.08h0l0,.05a.42.42,0,0,0,.55.15.4.4,0,0,0,.14-.55,2.75,2.75,0,0,0-1.69-1.24,1.42,1.42,0,0,0-1.53.77,1.8,1.8,0,0,0,0,1.6,1.61,1.61,0,0,0,1.48.8,2.08,2.08,0,0,0,1.71-1,.4.4,0,1,0-.69-.4Z" style="fill:#3B6AFF"></path><path d="M174.68,259.48a1.54,1.54,0,0,0,1.1,1.34,1.4,1.4,0,0,0,1.61-.52,1.64,1.64,0,0,0,0-1.62,1.32,1.32,0,0,0-1.55-.64,1.67,1.67,0,0,0-.87.62,1.36,1.36,0,0,0-.24,1,.42.42,0,0,0,.5.28.43.43,0,0,0,.28-.5s0,.09,0,.05v-.11a.25.25,0,0,0,0-.08.24.24,0,0,0,0-.08l0,0s0,0,0,0,0-.1.08-.14.06-.09,0,0,0,0,0,0l.12-.12,0,0,0,0s.05,0,.07,0l.14-.08,0,0h0l.08,0,.07,0h0c.06,0,0,0,0,0a.81.81,0,0,0,.15,0h0c.07,0,0,0,0,0l.08,0,.08,0c.07,0-.07,0,0,0a.54.54,0,0,0,.13.07c-.07,0-.06,0,0,0l0,0,0,.05,0,.05s0,0,0,0,0,0,0,0a.75.75,0,0,1,.07.12s0,.08,0,0,0,0,0,0a.74.74,0,0,1,0,.14.13.13,0,0,0,0,.06c0-.11,0,0,0,0v.21c0,.07,0-.1,0,0l0,.13a.25.25,0,0,0,0,.07c0,.08,0-.06,0,0a.54.54,0,0,1-.07.13l0,.05s.06-.06,0,0l0,0,0,.05s-.08.06,0,0,0,0,0,0l-.08,0,0,0,0,0-.07,0-.06,0h-.05s.1,0,.05,0h-.22l-.16,0,0,0s0,0,0,0a.2.2,0,0,0-.08,0l-.14-.09c-.08-.05,0,0,0,0l-.07-.06-.06-.06s-.07-.09,0,0,0,0,0,0l-.05-.08v0c0-.05,0,0,0,0s0,0,0-.08a.19.19,0,0,1,0-.08s0-.06,0,0,0,0,0,0a.42.42,0,0,0-.41-.4.41.41,0,0,0-.4.4Z" style="fill:#3B6AFF"></path></g><g id="freepik--device-1--inject-2"><path d="M235.91,220.74,219.69,230a8.34,8.34,0,0,1-8.28,0l-10.4-6-1.18-.68a8.12,8.12,0,0,1-4.06-7V186.3l24.35-13.86V203a7,7,0,0,0,3.5,6.06l12.31,7.11A2.62,2.62,0,0,1,235.91,220.74Z" style="fill:#e0e0e0"></path><path d="M216.22,231a8.34,8.34,0,0,0,3.47-1.06l16.22-9.24a2.62,2.62,0,0,0,0-4.55l-8.41-4.85h-11.3Z" style="fill:#e6e6e6"></path><path d="M235.62,214.18l.45.36a3.1,3.1,0,0,1,1.17,2.42v1.51h-1.63Z" style="fill:#e6e6e6"></path><path d="M222,174.76v27.5a6.78,6.78,0,0,0,3.39,5.88l10.24,6a2.54,2.54,0,0,1,0,4.41l-1.16.66-14.55,8.28a8.06,8.06,0,0,1-8,0l-10.08-5.95a6.77,6.77,0,0,1-3.39-5.87V188.17Z" style="fill:#f0f0f0"></path><path d="M222,202.26v-27.5l-23.57,13.41v27.51a6.77,6.77,0,0,0,3.39,5.87L225,207.92A6.78,6.78,0,0,1,222,202.26Z" style="fill:#e6e6e6"></path><path d="M147.41,236.16l-2.68,1.55v4.9a9.54,9.54,0,0,1-4.88-1.35l-.21-.12a5.28,5.28,0,0,1-2.45-3.36,3.12,3.12,0,0,1-.14-.93v-6.67Z" style="fill:#e0e0e0"></path><path d="M263.81,56.2l-.21-.12a9.51,9.51,0,0,0-4.88-1.35h0a3,3,0,0,0-1.57.42L141.72,121.53a9.32,9.32,0,0,0-4.67,8.08V230.18l10.36,6,109.66-63a9.34,9.34,0,0,0,4.67-8.09V60.76h4.66A5.3,5.3,0,0,0,263.81,56.2Z" style="fill:#37474f"></path><path d="M138,125.42a9.36,9.36,0,0,0-1,4.19V230.18l10.36,6,3.88-2.24V133.63Z" style="fill:#263238"></path><path d="M141.71,232.87v6.67a3.06,3.06,0,0,0,4.59,2.65l115.43-66.38a9.32,9.32,0,0,0,4.67-8.08v-6.85Z" style="fill:#f0f0f0"></path><path d="M266.4,60.49a3.06,3.06,0,0,0-4.58-2.65L146.38,124.22a9.34,9.34,0,0,0-4.67,8.09V232.87l124.69-72" style="fill:#455a64"></path><path d="M259.71,65.12h0a3.4,3.4,0,0,0-1.52.35L149.68,127.84a8.26,8.26,0,0,0-4.12,7.14v85.69a2.66,2.66,0,0,0,.22,1.07h0a2.72,2.72,0,0,0,3.84,1.27L258.1,160.64a8.26,8.26,0,0,0,4.12-7.14V67.81A2.7,2.7,0,0,0,259.71,65.12Z" style="fill:#3B6AFF"></path><path d="M259.71,65.12h0a3.4,3.4,0,0,0-1.52.35L149.68,127.84a8.26,8.26,0,0,0-4.12,7.14v85.69a2.66,2.66,0,0,0,.22,1.07h0a2.72,2.72,0,0,0,3.84,1.27L258.1,160.64a8.26,8.26,0,0,0,4.12-7.14V67.81A2.7,2.7,0,0,0,259.71,65.12Z" style="fill:#fff;opacity:0.5"></path></g><g id="freepik--device-2--inject-2"><path d="M305.1,238.21l-.85.48a5.44,5.44,0,0,0-1.2-.94l-33.11-19.11c-2.48-1.44-6.24-1.59-8.39-.35L203.11,252a3.84,3.84,0,0,0-.44.32l-1-.57v2.47h0a3.5,3.5,0,0,0,2,2.62L236.82,276c2.48,1.43,6.24,1.59,8.39.35l58.44-33.74a2.49,2.49,0,0,0,1.43-2.07h0Z" style="fill:#263238"></path><path d="M303.65,240.27,245.21,274c-2.15,1.25-5.91,1.09-8.39-.34l-33.11-19.12c-2.48-1.43-2.75-3.6-.6-4.84L261.55,216c2.15-1.25,5.91-1.09,8.39.34l33.11,19.12C305.54,236.86,305.81,239,303.65,240.27Z" style="fill:#37474f"></path><path d="M296.59,239.09l-45.85,26.47a4.53,4.53,0,0,1-4.09-.17L218,248.87c-1.21-.69-1.34-1.75-.29-2.35L263.6,220a4.56,4.56,0,0,1,4.09.17l28.61,16.52C297.51,237.43,297.64,238.48,296.59,239.09Z" style="fill:#455a64"></path><ellipse cx="226.43" cy="260.68" rx="3.81" ry="2.2" style="fill:#263238"></ellipse><path d="M235.16,263.39l-4,2.3a1.77,1.77,0,0,1-1.58-.07h0c-.46-.27-.51-.68-.11-.91l4-2.3a1.77,1.77,0,0,1,1.58.07h0C235.51,262.75,235.57,263.16,235.16,263.39Z" style="fill:#263238"></path><path d="M238.94,265.57l-4,2.3a1.77,1.77,0,0,1-1.58-.07h0c-.46-.27-.51-.67-.11-.91l4-2.29a1.74,1.74,0,0,1,1.58.06h0C239.29,264.93,239.34,265.34,238.94,265.57Z" style="fill:#263238"></path><path d="M219.65,254.44l-4,2.29a1.71,1.71,0,0,1-1.57-.06h0c-.47-.27-.52-.68-.12-.91l4-2.3a1.77,1.77,0,0,1,1.58.07h0C220,253.8,220.06,254.2,219.65,254.44Z" style="fill:#263238"></path><path d="M223.43,256.62l-4,2.3a1.77,1.77,0,0,1-1.58-.07h0c-.46-.27-.51-.68-.11-.91l4-2.3a1.77,1.77,0,0,1,1.58.07h0C223.79,256,223.84,256.39,223.43,256.62Z" style="fill:#263238"></path><path d="M258.88,198.22l-6.78-.58-6.79.56,1.71,9.69v.1h0a2.81,2.81,0,0,0,1.45,1.72,8,8,0,0,0,7.21,0,2.72,2.72,0,0,0,1.48-1.84h0Z" style="fill:#37474f"></path><path d="M256.91,195.15c2.66,1.54,2.66,4,0,5.56a10.59,10.59,0,0,1-9.62,0c-2.66-1.53-2.66-4,0-5.56A10.65,10.65,0,0,1,256.91,195.15Z" style="fill:#455a64"></path><path d="M252.1,176.63a1.88,1.88,0,0,0-1.89,1.89v18.72a.93.93,0,0,0,.55.77,2.92,2.92,0,0,0,2.67,0,.94.94,0,0,0,.56-.77V178.52A1.89,1.89,0,0,0,252.1,176.63Z" style="fill:#263238"></path></g><g id="freepik--Windows--inject-2"><path d="M201.6,47h0a2.59,2.59,0,0,0-1.13.26L120.35,93.33a6.11,6.11,0,0,0-3,5.28v63.27a1.86,1.86,0,0,0,.17.79h0a2,2,0,0,0,2.83.94l80.11-46.06a6.11,6.11,0,0,0,3.05-5.28V49A2,2,0,0,0,201.6,47Z" style="fill:#e0e0e0"></path><path d="M201.56,48a1,1,0,0,1,.93,1v63.27a5.13,5.13,0,0,1-2.56,4.44l-80.12,46.06a1,1,0,0,1-.51.14,1,1,0,0,1-1-.62,1.15,1.15,0,0,1-.08-.41V98.61a5.13,5.13,0,0,1,2.56-4.44L201,48.11a1.44,1.44,0,0,1,.61-.13m0-1h0a2.59,2.59,0,0,0-1.13.26L120.35,93.33a6.11,6.11,0,0,0-3,5.28v63.27a1.86,1.86,0,0,0,.17.79h0a2,2,0,0,0,1.83,1.21,2.09,2.09,0,0,0,1-.27l80.11-46.06a6.11,6.11,0,0,0,3.05-5.28V49a2,2,0,0,0-1.86-2h0Z" style="fill:#e0e0e0"></path><polygon points="118.18 163.53 120.99 165.5 120.99 160.94 118.18 163.53" style="fill:#e0e0e0"></polygon><polygon points="202.5 47.31 205.35 49.3 201.84 51.79 202.5 47.31" style="fill:#e0e0e0"></polygon><path d="M204.34,48.94h0a2.44,2.44,0,0,0-1.12.26L123.09,95.26a6.09,6.09,0,0,0-3,5.27v63.28a2.06,2.06,0,0,0,.16.79h0a2,2,0,0,0,2.83.93l80.12-46a6.1,6.1,0,0,0,3-5.28V50.93A2,2,0,0,0,204.34,48.94Z" style="fill:#fff"></path><path d="M204.3,49.91a1,1,0,0,1,.93,1V114.2a5.15,5.15,0,0,1-2.56,4.44L122.55,164.7a1,1,0,0,1-.51.14,1,1,0,0,1-1-.62,1.15,1.15,0,0,1-.08-.41V100.53a5.13,5.13,0,0,1,2.56-4.43L203.68,50a1.38,1.38,0,0,1,.62-.13m0-1h0a2.44,2.44,0,0,0-1.12.26L123.09,95.26a6.09,6.09,0,0,0-3,5.27v63.28a2.06,2.06,0,0,0,.16.79h0a2,2,0,0,0,1.84,1.2,1.92,1.92,0,0,0,1-.27l80.12-46a6.1,6.1,0,0,0,3-5.28V50.93a2,2,0,0,0-1.85-2h0Z" style="fill:#e0e0e0"></path><path d="M160.2,118a20.6,20.6,0,0,1,.18-2.58c-5.59,1.92-9.93-.8-10.82-6.83-6.27,5.09-11,14.22-11,21.9,0,8.76,6.15,12.31,13.74,7.93,4.4-2.54,8.3-7.19,10.82-12.35C161.29,124.47,160.2,121.72,160.2,118Z" style="fill:#3B6AFF"></path><path d="M160.2,118a20.6,20.6,0,0,1,.18-2.58c-5.59,1.92-9.93-.8-10.82-6.83-6.27,5.09-11,14.22-11,21.9,0,8.76,6.15,12.31,13.74,7.93,4.4-2.54,8.3-7.19,10.82-12.35C161.29,124.47,160.2,121.72,160.2,118Z" style="fill:#fff;opacity:0.7000000000000001"></path><path d="M176.67,93a31.63,31.63,0,0,1-10.82,19.32,15.89,15.89,0,0,1,.19,2.36,26.92,26.92,0,0,1-2.92,11.45c2.51,2.26,6.42,2.4,10.81-.14,7.59-4.38,13.74-15,13.74-23.8C187.67,94.5,183,90.82,176.67,93Z" style="fill:#3B6AFF"></path><path d="M176.67,93a31.63,31.63,0,0,1-10.82,19.32,15.89,15.89,0,0,1,.19,2.36,26.92,26.92,0,0,1-2.92,11.45c2.51,2.26,6.42,2.4,10.81-.14,7.59-4.38,13.74-15,13.74-23.8C187.67,94.5,183,90.82,176.67,93Z" style="opacity:0.30000000000000004"></path><path d="M165.85,112.3a21.87,21.87,0,0,1-2.73,1.89,16.58,16.58,0,0,1-2.74,1.27,20.6,20.6,0,0,0-.18,2.58c0,3.68,1.09,6.43,2.92,8.07A26.92,26.92,0,0,0,166,114.66,15.89,15.89,0,0,0,165.85,112.3Z" style="fill:#3B6AFF"></path><path d="M165.85,112.3a21.87,21.87,0,0,1-2.73,1.89,16.58,16.58,0,0,1-2.74,1.27,20.6,20.6,0,0,0-.18,2.58c0,3.68,1.09,6.43,2.92,8.07A26.92,26.92,0,0,0,166,114.66,15.89,15.89,0,0,0,165.85,112.3Z" style="opacity:0.5"></path><path d="M163.12,106.59c2.51-5.16,6.42-9.81,10.81-12.35A15.72,15.72,0,0,1,176.67,93a20.73,20.73,0,0,0,.18-2.58c0-8.76-6.15-12.31-13.73-7.93s-13.74,15-13.74,23.79a16.07,16.07,0,0,0,.18,2.37,21,21,0,0,1,2.74-1.9C156.7,104.19,160.6,104.33,163.12,106.59Z" style="fill:#3B6AFF"></path><path d="M160.38,115.46a28.66,28.66,0,0,1,2.74-8.87c-2.52-2.26-6.42-2.4-10.82.14a21,21,0,0,0-2.74,1.9C150.45,114.66,154.79,117.38,160.38,115.46Z" style="fill:#3B6AFF"></path><path d="M160.38,115.46a28.66,28.66,0,0,1,2.74-8.87c-2.52-2.26-6.42-2.4-10.82.14a21,21,0,0,0-2.74,1.9C150.45,114.66,154.79,117.38,160.38,115.46Z" style="fill:#fff;opacity:0.30000000000000004"></path><path d="M163.12,106.59a9.29,9.29,0,0,1,2.73,5.71A31.63,31.63,0,0,0,176.67,93a15.72,15.72,0,0,0-2.74,1.26C169.54,96.78,165.63,101.43,163.12,106.59Z" style="fill:#3B6AFF"></path><path d="M163.12,106.59a9.29,9.29,0,0,1,2.73,5.71A31.63,31.63,0,0,0,176.67,93a15.72,15.72,0,0,0-2.74,1.26C169.54,96.78,165.63,101.43,163.12,106.59Z" style="opacity:0.7000000000000001"></path><path d="M163.12,106.59a28.66,28.66,0,0,0-2.74,8.87,16.58,16.58,0,0,0,2.74-1.27,21.87,21.87,0,0,0,2.73-1.89A9.29,9.29,0,0,0,163.12,106.59Z" style="fill:#263238"></path><path d="M250.59,98h0a2.06,2.06,0,0,0-.93.21l-66.2,38.06a5,5,0,0,0-2.52,4.36v52.29a1.76,1.76,0,0,0,.13.66h0a1.66,1.66,0,0,0,2.34.77l66.21-38.06a5,5,0,0,0,2.51-4.36V99.66A1.64,1.64,0,0,0,250.59,98Z" style="fill:#e0e0e0"></path><path d="M250.56,98.82a.84.84,0,0,1,.76.84V152a4.23,4.23,0,0,1-2.11,3.66L183,193.67a.79.79,0,0,1-.42.12.84.84,0,0,1-.78-.51.8.8,0,0,1-.07-.34V140.65a4.23,4.23,0,0,1,2.11-3.66l66.21-38.07a1.16,1.16,0,0,1,.51-.1m0-.8h0a2.06,2.06,0,0,0-.93.21l-66.2,38.06a5,5,0,0,0-2.52,4.36v52.29a1.76,1.76,0,0,0,.13.66h0a1.65,1.65,0,0,0,2.34.77l66.21-38.06a5,5,0,0,0,2.51-4.36V99.66A1.64,1.64,0,0,0,250.59,98h0Z" style="fill:#e0e0e0"></path><polygon points="181.66 194.3 183.98 195.93 183.98 192.16 181.66 194.3" style="fill:#e0e0e0"></polygon><polygon points="251.33 98.27 253.69 99.91 250.79 101.96 251.33 98.27" style="fill:#e0e0e0"></polygon><path d="M252.85,99.61h0a2,2,0,0,0-.93.22l-66.2,38.06a5,5,0,0,0-2.52,4.35v52.29a1.59,1.59,0,0,0,.14.66h0a1.66,1.66,0,0,0,2.34.77l66.21-38.06a5,5,0,0,0,2.51-4.36V101.25A1.64,1.64,0,0,0,252.85,99.61Z" style="fill:#fff"></path><path d="M252.82,100.41a.83.83,0,0,1,.76.84v52.29a4.26,4.26,0,0,1-2.11,3.67l-66.21,38.06a.88.88,0,0,1-.42.11.85.85,0,0,1-.78-.51.8.8,0,0,1-.07-.34V142.24a4.23,4.23,0,0,1,2.12-3.66l66.2-38.06a1.19,1.19,0,0,1,.51-.11m0-.8h0a2,2,0,0,0-.93.22l-66.2,38.06a5,5,0,0,0-2.52,4.35v52.29a1.59,1.59,0,0,0,.14.66h0a1.68,1.68,0,0,0,1.52,1,1.63,1.63,0,0,0,.82-.22l66.21-38.06a5,5,0,0,0,2.51-4.36V101.25a1.64,1.64,0,0,0-1.53-1.64h0Z" style="fill:#e0e0e0"></path><polygon points="246.11 151.86 196.17 180.69 210.93 142.3 221.14 154.44 231.59 139.56 246.11 151.86" style="fill:#3B6AFF"></polygon><polygon points="246.11 151.86 196.17 180.69 210.93 142.3 221.14 154.44 231.59 139.56 246.11 151.86" style="fill:#fff;opacity:0.4"></polygon><path d="M228.79,127.91a10.08,10.08,0,0,1-4.55,7.89c-2.52,1.45-4.56.27-4.56-2.63a10.05,10.05,0,0,1,4.56-7.89C226.75,123.83,228.79,125,228.79,127.91Z" style="fill:#3B6AFF"></path></g><g id="freepik--Character--inject-2"><path d="M348.89,279.45l15,79.74a2.45,2.45,0,0,0,4.83-.81l-11-73.88Z" style="fill:#263238"></path><path d="M377.7,331.15l-15.26,93.11a2.9,2.9,0,0,1-2.86,2.43h0a2.9,2.9,0,0,1-2.89-3.22l10.71-96.06Z" style="fill:#455a64"></path><path d="M325,299.83l-15.26,93.11a2.9,2.9,0,0,1-2.86,2.44h0a2.91,2.91,0,0,1-2.89-3.23l10.71-96Z" style="fill:#455a64"></path><path d="M402.16,309.38l15,80.23a2.45,2.45,0,0,0,4.83-.8l-11.12-74.37Z" style="fill:#263238"></path><path d="M352.2,273.38A21.39,21.39,0,0,0,364.81,256c2.43-24.43,11-74.77,40.19-58,36,20.68,23.1,80.75,17.87,100a26,26,0,0,1-6.61,11.51c-6.51,6.55-20,17.83-42.86,27.43a13.45,13.45,0,0,1-8.87.53c-11.37-3.24-41.08-13.19-55.9-32.14a5.18,5.18,0,0,1,.85-7.24C315.49,293.28,329.05,283.7,352.2,273.38Z" style="fill:#3B6AFF"></path><path d="M352.2,273.38A21.39,21.39,0,0,0,364.81,256c2.43-24.43,11-74.77,40.19-58,36,20.68,23.1,80.75,17.87,100a26,26,0,0,1-6.61,11.51c-6.51,6.55-20,17.83-42.86,27.43a13.45,13.45,0,0,1-8.87.53c-11.37-3.24-41.08-13.19-55.9-32.14a5.18,5.18,0,0,1,.85-7.24C315.49,293.28,329.05,283.7,352.2,273.38Z" style="opacity:0.30000000000000004"></path><path d="M307.56,301.84a5.12,5.12,0,0,0,1.07,3.45c.79,1,1.63,2,2.5,3h0c.48.52,1,1,1.46,1.55l0,0c.5.5,1,1,1.51,1.49l.05,0c.51.49,1,1,1.56,1.45l0,0c.53.48,1.08,1,1.63,1.41l0,0c8.4,7.06,18.6,12.43,27.71,16.3l0,0,1.69.7.17.07c.53.22,1,.43,1.56.63l.27.11,1.45.56.33.13,1.35.51.39.15,1.25.45.45.16,1.15.41.48.17,1.06.36.51.18,1,.32.55.18.87.28.58.18.75.24.63.19.64.2.77.23.39.11,1.09.32a13.45,13.45,0,0,0,8.87-.53c22.89-9.6,36.35-20.88,42.86-27.43A26,26,0,0,0,422.87,298C428.1,278.7,441,218.63,405,198c-.64-.37-1.26-.69-1.88-1l-.41-.19q-.91-.44-1.8-.78l-.17-.06c-.57-.22-1.12-.4-1.67-.56l-.25-.07c-.6-.17-1.18-.3-1.75-.41l-.14,0a15.83,15.83,0,0,0-3.45-.24h-.07a14.68,14.68,0,0,0-3.27.51h0c5.75-2.54,12.77-2.43,19.73,1.57,36,20.69,23.1,80.76,17.87,100l-.89,3.31a31.3,31.3,0,0,1-11.23,16.79L406.28,324h0a147.17,147.17,0,0,1-32.84,18.71,13.48,13.48,0,0,1-8.9.54C353.18,340,323.45,330,308.63,311.07a5.15,5.15,0,0,1-1.07-2.82h0v-6.42Z" style="fill:#3B6AFF"></path><path d="M307.56,301.84a5.12,5.12,0,0,0,1.07,3.45c.79,1,1.63,2,2.5,3h0c.48.52,1,1,1.46,1.55l0,0c.5.5,1,1,1.51,1.49l.05,0c.51.49,1,1,1.56,1.45l0,0c.53.48,1.08,1,1.63,1.41l0,0c8.4,7.06,18.6,12.43,27.71,16.3l0,0,1.69.7.17.07c.53.22,1,.43,1.56.63l.27.11,1.45.56.33.13,1.35.51.39.15,1.25.45.45.16,1.15.41.48.17,1.06.36.51.18,1,.32.55.18.87.28.58.18.75.24.63.19.64.2.77.23.39.11,1.09.32a13.45,13.45,0,0,0,8.87-.53c22.89-9.6,36.35-20.88,42.86-27.43A26,26,0,0,0,422.87,298C428.1,278.7,441,218.63,405,198c-.64-.37-1.26-.69-1.88-1l-.41-.19q-.91-.44-1.8-.78l-.17-.06c-.57-.22-1.12-.4-1.67-.56l-.25-.07c-.6-.17-1.18-.3-1.75-.41l-.14,0a15.83,15.83,0,0,0-3.45-.24h-.07a14.68,14.68,0,0,0-3.27.51h0c5.75-2.54,12.77-2.43,19.73,1.57,36,20.69,23.1,80.76,17.87,100l-.89,3.31a31.3,31.3,0,0,1-11.23,16.79L406.28,324h0a147.17,147.17,0,0,1-32.84,18.71,13.48,13.48,0,0,1-8.9.54C353.18,340,323.45,330,308.63,311.07a5.15,5.15,0,0,1-1.07-2.82h0v-6.42Z" style="opacity:0.5"></path><path d="M417.11,158.29s8-8.27,17.13-3,4.8,22,2.17,26.75-7.5,21.83,6.77,18.37c0,0-4.88,7-15,5.09s-12.08-14.09-9.38-24.17-1.65-14.66-1.65-14.66Z" style="fill:#263238"></path><path d="M375.32,198.86s-10.59-1.1-14.8.79-30.91,39.76-30.91,39.76,10,3.16,26.19-10.25S375.32,198.86,375.32,198.86Z" style="fill:#945959"></path><path d="M410.58,237.67l1.26-29L398.47,202l-15.93-3.1-7.22,0s-14.08,12-18.43,23.57,5.49,20.2,5.49,20.2c0,9.75-5.49,20.43-5.49,20.43s9.43,13.78,30.18,12.26a52.93,52.93,0,0,0,19.15-5.6,113.75,113.75,0,0,0-3.67-15Z" style="fill:#3B6AFF"></path><path d="M410.58,237.67l1.26-29L398.47,202l-15.93-3.1-7.22,0s-14.08,12-18.43,23.57,5.49,20.2,5.49,20.2c0,9.75-5.49,20.43-5.49,20.43s9.43,13.78,30.18,12.26a52.93,52.93,0,0,0,19.15-5.6,113.75,113.75,0,0,0-3.67-15Z" style="fill:#fff;opacity:0.5"></path><path d="M384.08,140.29s-10.85-5.78-15.48,5.53,2.21,24.05-11.36,25.92c0,0,6.62,7.53,15.18-3.26-1.21,1.53.21,6.53.75,8.17a18.19,18.19,0,0,0,5,7.76,25.32,25.32,0,0,0,9,4.94,21.68,21.68,0,0,0,7.46,1.36c3.86-.09,8.72-1.85,12.07-3.78A22.41,22.41,0,0,0,415.2,178,33,33,0,0,0,418,156a22.41,22.41,0,0,0-5.94-11C404.41,138.2,393.57,137.89,384.08,140.29Z" style="fill:#263238"></path><path d="M384.09,189l-1.55,9.91s-12,9.81-2.18,12.28S398.47,202,398.47,202l3.08-19.65Z" style="fill:#945959"></path><path d="M401.89,179l-.09.57C396,193.1,386.27,194.71,383.16,195l3.3-21.82L402,175.49Z" style="fill:#703838"></path><path d="M392,145.31c-6-.44-19,2-21.6,17.53s-2.1,27.83,5.9,29.59,27.22-2.71,31.23-22.82S397.81,145.74,392,145.31Z" style="fill:#945959"></path><polygon points="380.31 170.81 379.02 179.99 373.87 177.58 380.31 170.81" style="fill:#703838"></polygon><path d="M388.39,171.82a1.88,1.88,0,1,1-1.6-2.13A1.88,1.88,0,0,1,388.39,171.82Z" style="fill:#263238"></path><path d="M376.28,168.77a1.89,1.89,0,1,1-1.6-2.13A1.89,1.89,0,0,1,376.28,168.77Z" style="fill:#263238"></path><path d="M372.69,164.29l4-1.65s-1.19-1.66-2.72-1S372.69,164.29,372.69,164.29Z" style="fill:#3B6AFF"></path><path d="M380.2,182.27a57.15,57.15,0,0,0,5.94-2.28s.35,1.24-2.28,2.14S380.2,182.27,380.2,182.27Z" style="fill:#703838"></path><path d="M372.69,164.29l4-1.65s-1.19-1.66-2.72-1S372.69,164.29,372.69,164.29Z" style="fill:#263238"></path><path d="M397.72,172.42s-1.4,6.51,2.38,7.1l7.41,1.16,2-12.52c2.19-14-6.16-30.36-30.63-22.32C378.84,145.84,374.81,164.41,397.72,172.42Z" style="fill:#263238"></path><path d="M400.18,178.75a9.62,9.62,0,0,1,1.47-4,4.46,4.46,0,0,1,4.31-2.35c4.43.61,4.31,4.95,4,6.45-.82,3.93-4.74,7.68-10.74,6.85Z" style="fill:#945959"></path><path d="M282.58,398.3s-12.22,9.55-13.48,12.25,1.94,10.32,19.25,7.55c4.84-.77,11.8-5.71,15.29-10.45s10.54-8,11.6-9.7c1.53-2.39.67-14.94-2-15.17C308.91,382.42,282.58,398.3,282.58,398.3Z" style="fill:#3B6AFF"></path><path d="M306.34,306.14s-7.68,63.23-8.95,72.54c-.59,4.36-12.66,17.38-16.83,21.77a1.74,1.74,0,0,0,.27,2.62l.36.25a13.61,13.61,0,0,0,16.44-.74c3.4-2.81,6.93-6.2,8.71-9.34a32.61,32.61,0,0,1,5.84-8,3.12,3.12,0,0,0,1-2.07c.22-3.09.93-10.86,2.7-15.21,2.25-5.52,13.71-27.76,13.71-47.88Z" style="fill:#945959"></path><path d="M329.61,320.11l-.08-.05-5.17-.58c2,13.89-1.9,33.08-1.91,33.13C326,343.32,329.61,331.38,329.61,320.11Z" style="fill:#703838"></path><path d="M305.36,411.64s-12.22,9.55-13.48,12.25,1.95,10.32,19.25,7.55c4.84-.77,11.8-5.71,15.29-10.45s10.54-8,11.61-9.7c1.52-2.39.66-14.94-2-15.17C331.69,395.76,305.36,411.64,305.36,411.64Z" style="fill:#3B6AFF"></path><path d="M329.13,319.48s-7.69,63.24-9,72.54c-.59,4.36-12.66,17.38-16.83,21.77a1.74,1.74,0,0,0,.27,2.62l.36.25a13.61,13.61,0,0,0,16.44-.74c3.4-2.81,6.93-6.2,8.72-9.34a32.68,32.68,0,0,1,5.83-8,3.12,3.12,0,0,0,1-2.07c.22-3.09.93-10.86,2.7-15.21,2.25-5.52,13.71-27.75,13.71-47.88Z" style="fill:#945959"></path><path d="M356.89,263.06s-36.71,20-44.23,28.91-10.72,29.43-10.72,29.43c12.82,16.54,52,18.35,52,18.35,3.3-10.79,11.39-12.69,24-18.79s26.7-18.43,29-31.73c1-6.08.39-13.27-.69-19.51a52.93,52.93,0,0,1-19.15,5.6C366.32,276.84,356.89,263.06,356.89,263.06Z" style="fill:#263238"></path><path d="M377.06,244.34s16.11,4.34,23.07-7.19C400.13,237.15,394.48,252.18,377.06,244.34Z" style="fill:#3B6AFF"></path><path d="M400.13,237.15s-5.65,15-23.07,7.19c0,0,16.11,4.34,23.07-7.19" style="fill:#fff;opacity:0.2"></path><path d="M410.09,207.77s-12.21,5.34-.62,32.26c7.79,18.1,9.09,23,9.09,23s-4.06,2-27.28,19.3l7,11.61s41.25-14.71,40.34-26.15-12.92-40.89-14.8-45.1S421,212.56,410.09,207.77Z" style="fill:#945959"></path><path d="M329.61,239.41c4,1.72,12.48-5.71,19.54-15.48A164.48,164.48,0,0,0,360.47,206a16.4,16.4,0,0,0,14.85-7.17c.92-1.34-6.45-10.34-6.45-10.34l3.89-1.74s6.19-1.69,5.81-4.44c-.16-1.18-10.38.95-14.23,1.8a4.4,4.4,0,0,0-2.42,1.43l-11.41,13s-11.7,10-18,15.91C322.84,223.54,321.29,235.83,329.61,239.41Z" style="fill:#945959"></path><path d="M368.87,188.89a.36.36,0,0,1-.33-.22.37.37,0,0,1,.18-.48l3.89-1.74c1.67-.46,5.78-2,5.61-4-.24-.12-1.57-.39-8.77,1a.36.36,0,0,1-.14-.71c8.32-1.61,9.08-1.06,9.36-.86a.58.58,0,0,1,.26.41c.41,3-5.81,4.77-6.08,4.84L369,188.85A.28.28,0,0,1,368.87,188.89Z" style="fill:#703838"></path><path d="M344.73,229.89a.38.38,0,0,1-.24-.09.35.35,0,0,1,0-.51c1.5-1.73,3-3.61,4.4-5.57a166.41,166.41,0,0,0,11.29-17.85l.12-.23.25,0a16.22,16.22,0,0,0,8.19-1.53.36.36,0,1,1,.32.65,17,17,0,0,1-8.35,1.63,169,169,0,0,1-11.23,17.72c-1.44,2-2.93,3.88-4.45,5.63A.36.36,0,0,1,344.73,229.89Z" style="fill:#703838"></path><path d="M392.49,282.46s-5.8-1.07-10.35-.1a18.49,18.49,0,0,1-6.34.15c-1.95-.26-4.83-.74-3.56,2.27,1.1,2.62,4.84,3.24,7.29,3.48,0,0-.87,3.1-7.55,2.91s-8.51.09-8,2.22,7,9.8,13.75,9.91c5.06.08,14.11-3.43,20.55-9.33Z" style="fill:#945959"></path></g><g id="freepik--speech-bubble--inject-2"><path d="M394.34,73.25A20.89,20.89,0,0,0,376.12,50c-.31,0-.62-.05-.94-.07a11.05,11.05,0,0,0,.2-1.15,14.38,14.38,0,0,0-12.54-16,14.63,14.63,0,0,0-2.38-.07,22.75,22.75,0,0,0-39,.34h0a20.86,20.86,0,0,0-21.33,29.81,14.38,14.38,0,0,0,6.75,27.94,19.93,19.93,0,0,0,30.78,14.44,21.84,21.84,0,0,0,38.77-11,22.82,22.82,0,0,0,.15-2.84A20.9,20.9,0,0,0,394.34,73.25Z" style="fill:#fff"></path><path d="M354.76,114.44a22.19,22.19,0,0,1-2.81-.17,22.69,22.69,0,0,1-14.52-7.74A20.94,20.94,0,0,1,306,91.94a14.79,14.79,0,0,1-4,0,15.38,15.38,0,0,1-3.23-29.78A21.88,21.88,0,0,1,321,32a23.75,23.75,0,0,1,40-.3,15.3,15.3,0,0,1,15.38,17.23s0,.08,0,.12a21.92,21.92,0,0,1,19,24.36h0a21.92,21.92,0,0,1-17.78,18.87,20.54,20.54,0,0,1-.15,2.11,22.86,22.86,0,0,1-22.64,20.09Zm-17.13-10.23a1,1,0,0,1,.79.38,20.85,20.85,0,0,0,37-10.48,21.75,21.75,0,0,0,.14-2.71,1,1,0,0,1,.86-1A19.88,19.88,0,0,0,376,51l-.52,0-.37,0a1,1,0,0,1-.72-.4,1,1,0,0,1-.18-.8c.07-.35.14-.71.18-1.07a13.39,13.39,0,0,0-11.67-14.9,12.27,12.27,0,0,0-2.22-.07,1,1,0,0,1-.89-.48,21.76,21.76,0,0,0-37.27.33,1,1,0,0,1-1,.48A19.88,19.88,0,0,0,301,62.4a1,1,0,0,1,0,.85,1,1,0,0,1-.65.55A13.38,13.38,0,0,0,302.21,90a13.05,13.05,0,0,0,4.44-.22,1,1,0,0,1,.79.17,1,1,0,0,1,.41.7,18.94,18.94,0,0,0,29.24,13.72A1,1,0,0,1,337.63,104.21Zm56.71-31h0Z" style="fill:#e0e0e0"></path><path d="M336.68,86.28h10a0,0,0,0,1,0,0v5.55a4.47,4.47,0,0,1-4.47,4.47h-1.08a4.47,4.47,0,0,1-4.47-4.47V86.28A0,0,0,0,1,336.68,86.28Z" transform="translate(-0.77 2.94) rotate(-0.49)" style="fill:#263238"></path><ellipse cx="341.66" cy="87.93" rx="7.82" ry="4.27" transform="translate(-0.73 2.9) rotate(-0.49)" style="fill:#37474f"></ellipse><ellipse cx="341.64" cy="85.44" rx="7.82" ry="4.27" transform="translate(-0.71 2.9) rotate(-0.49)" style="fill:#455a64"></ellipse><path d="M358.11,63.46a16.65,16.65,0,1,0-25.64,14.15,6.35,6.35,0,0,1,3,5.26h0A4.11,4.11,0,0,0,339.59,87l2.07,0,2.07,0a4.11,4.11,0,0,0,4.08-4.14v-.18a6,6,0,0,1,2.77-5A16.64,16.64,0,0,0,358.11,63.46Z" style="fill:#3B6AFF"></path><path d="M342.5,87c0-.06-.12-1.55-.12-14.75,0-.9,0-1.76.05-2.57-.41,0-.85.06-1.31.06s-.69,0-1,0a30.11,30.11,0,0,1,.33,4.26l.11,13h-.72l-.11-13a26.92,26.92,0,0,0-.35-4.33c-3.9-.44-5.72-2.47-5.73-4.39a2.06,2.06,0,0,1,2-2.27h0c2.06,0,3.62,2.24,4.34,6,.36,0,.74,0,1.13,0s.93,0,1.36-.07c.29-5,1.34-8,3.11-8.7a2.64,2.64,0,0,1,2.84.76,4.52,4.52,0,0,1,.46,4.65c-.54,1.29-2,3.34-5.74,3.92,0,.81-.05,1.7-.05,2.66,0,13.07.12,14.63.12,14.69Zm-6.86-23.29h0a1.36,1.36,0,0,0-1.27,1.55c0,1.57,1.56,3.24,4.88,3.67C338.56,65.66,337.26,63.66,335.64,63.66Zm10.77-2.9a1.58,1.58,0,0,0-.56.1c-.89.37-2.29,1.92-2.67,8,3.32-.55,4.57-2.33,5-3.46a3.85,3.85,0,0,0-.3-3.88A2.24,2.24,0,0,0,346.41,60.76Z" style="fill:#263238"></path><path d="M351.56,55.63c-.61,1.08-2.5,1.17-4.21.19s-2.62-2.63-2-3.71,2.5-1.16,4.21-.18S352.17,54.56,351.56,55.63Z" style="fill:#fff;opacity:0.4"></path><path d="M355.26,60c.26,1.16-.19,2.24-1,2.42s-1.68-.62-1.93-1.77.2-2.24,1-2.42S355,58.86,355.26,60Z" style="fill:#fff;opacity:0.4"></path><path d="M340.73,43.91a.71.71,0,0,1-.71-.68l-.28-7.79a.71.71,0,0,1,.68-.74.73.73,0,0,1,.74.69l.28,7.79a.7.7,0,0,1-.68.73Z" style="fill:#3B6AFF"></path><path d="M324.11,52.16a.71.71,0,0,1-.34-.08l-6.87-3.66a.71.71,0,0,1,.67-1.26l6.87,3.67a.7.7,0,0,1-.33,1.33Z" style="fill:#3B6AFF"></path><path d="M356.69,51a.68.68,0,0,1-.6-.33.71.71,0,0,1,.23-1l6.62-4.11a.71.71,0,0,1,1,.23.72.72,0,0,1-.23,1l-6.62,4.11A.75.75,0,0,1,356.69,51Z" style="fill:#3B6AFF"></path><path d="M383.28,106.74A10.69,10.69,0,1,1,374,94.83,10.69,10.69,0,0,1,383.28,106.74Z" style="fill:#fff"></path><path d="M372.69,117.14A11.7,11.7,0,0,1,361.06,104a11.7,11.7,0,0,1,23.22,2.83h0a11.7,11.7,0,0,1-11.59,10.28Zm0-21.39a9.69,9.69,0,0,0-9.61,8.52,9.69,9.69,0,1,0,19.24,2.35h0a9.7,9.7,0,0,0-8.45-10.79A9.45,9.45,0,0,0,372.66,95.75Z" style="fill:#e0e0e0"></path><circle cx="388.41" cy="125.42" r="4.22" style="fill:#fff"></circle><path d="M388.41,130.64a5.22,5.22,0,1,1,5.22-5.22A5.22,5.22,0,0,1,388.41,130.64Zm0-8.43a3.22,3.22,0,1,0,3.22,3.21A3.21,3.21,0,0,0,388.41,122.21Z" style="fill:#e0e0e0"></path></g></svg>