<svg width="30" height="30" viewBox="0 0 14 15" fill="none" xmlns="http://www.w3.org/2000/svg">
<path d="M12.9202 1.58862C12.4315 1.09996 11.8435 0.855957 11.1555 0.855957H2.83083C2.14283 0.855957 1.55483 1.09996 1.06616 1.58862C0.577496 2.07729 0.333496 2.66529 0.333496 3.35329V11.678C0.333496 12.366 0.577496 12.954 1.06616 13.4426C1.55483 13.9313 2.14283 14.1753 2.83083 14.1753H4.7735C4.90016 14.1753 4.9955 14.1706 5.0595 14.162C5.13396 14.147 5.20117 14.1073 5.25016 14.0493C5.3135 13.9826 5.3455 13.886 5.3455 13.7593L5.34083 13.1693C5.33816 12.7933 5.33683 12.496 5.33683 12.276L5.13683 12.3106C5.01016 12.334 4.85016 12.344 4.65616 12.3413C4.45395 12.3376 4.25239 12.3173 4.0535 12.2806C3.84176 12.2415 3.64245 12.1524 3.47216 12.0206C3.29382 11.8857 3.16081 11.6997 3.09083 11.4873L3.00416 11.2873C2.93111 11.1295 2.83934 10.9811 2.73083 10.8453C2.60683 10.6833 2.48083 10.574 2.3535 10.516L2.2935 10.4726C2.25166 10.4427 2.2136 10.4077 2.18016 10.3686C2.14822 10.3323 2.12193 10.2914 2.10216 10.2473C2.08483 10.2066 2.0995 10.1733 2.1455 10.1473C2.19216 10.1206 2.2755 10.108 2.3975 10.108L2.57083 10.1346C2.68616 10.1573 2.8295 10.2266 2.9995 10.342C3.17154 10.4592 3.31525 10.6134 3.42016 10.7933C3.5535 11.03 3.7135 11.2106 3.9015 11.3353C4.0895 11.4593 4.27883 11.522 4.4695 11.522C4.66016 11.522 4.82483 11.5073 4.96416 11.4786C5.0989 11.4508 5.22983 11.4069 5.35416 11.348C5.40616 10.9613 5.5475 10.6626 5.77883 10.4546C5.47908 10.4252 5.182 10.3731 4.89016 10.2986C4.60536 10.2204 4.33145 10.1068 4.07483 9.96062C3.80633 9.81444 3.56917 9.61692 3.37683 9.37929C3.19216 9.14796 3.04016 8.84462 2.9215 8.46929C2.8035 8.09329 2.74416 7.65929 2.74416 7.16796C2.74416 6.46862 2.97216 5.87329 3.42883 5.38129C3.2155 4.85596 3.2355 4.26596 3.4895 3.61329C3.6575 3.56062 3.90616 3.59996 4.2355 3.72996C4.56483 3.85996 4.80616 3.97129 4.9595 4.06329C5.11283 4.15662 5.2355 4.23462 5.32816 4.29796C5.87015 4.14713 6.43025 4.07131 6.99283 4.07262C7.5655 4.07262 8.12016 4.14796 8.65816 4.29796L8.9875 4.08996C9.24082 3.93786 9.50802 3.81017 9.78549 3.70862C10.0922 3.59262 10.3255 3.56129 10.4882 3.61329C10.7482 4.26662 10.7708 4.85596 10.5568 5.38196C11.0135 5.87329 11.2422 6.46862 11.2422 7.16862C11.2422 7.65996 11.1828 8.09529 11.0642 8.47329C10.9462 8.85196 10.7928 9.15529 10.6048 9.38396C10.4091 9.61854 10.171 9.81417 9.90283 9.96062C9.62283 10.1166 9.35083 10.2293 9.08749 10.2986C8.79568 10.3733 8.4986 10.4257 8.19883 10.4553C8.49883 10.7153 8.6495 11.1253 8.6495 11.686V13.7593C8.6495 13.8573 8.6635 13.9366 8.69283 13.9973C8.70631 14.0265 8.72554 14.0527 8.74936 14.0744C8.77318 14.096 8.80111 14.1127 8.8315 14.1233C8.8955 14.146 8.9515 14.1606 9.00083 14.166C9.05016 14.1726 9.12083 14.1746 9.21283 14.1746H11.1555C11.8435 14.1746 12.4315 13.9306 12.9202 13.442C13.4082 12.954 13.6528 12.3653 13.6528 11.6773V3.35329C13.6528 2.66529 13.4082 2.07729 12.9195 1.58862H12.9202Z" fill="white"/>
</svg>
