<svg width="13" height="16" viewBox="0 0 13 16" fill="none" xmlns="http://www.w3.org/2000/svg">
<path opacity="0.8" d="M6.18263 12.0097C6.99403 12.0097 7.65791 11.3458 7.65791 10.5344C7.65791 9.72297 6.99403 9.0591 6.18263 9.0591C5.37122 9.0591 4.70734 9.72297 4.70734 10.5344C4.70734 11.3458 5.37122 12.0097 6.18263 12.0097ZM10.6085 5.37089H9.87084V3.89561C9.87084 1.85971 8.21852 0.207397 6.18263 0.207397C4.14674 0.207397 2.49442 1.85971 2.49442 3.89561H3.89594C3.89594 2.63424 4.92126 1.60892 6.18263 1.60892C7.44399 1.60892 8.46932 2.63424 8.46932 3.89561V5.37089H1.75678C0.945372 5.37089 0.281494 6.03477 0.281494 6.84617V14.2226C0.281494 15.034 0.945372 15.6979 1.75678 15.6979H10.6085C11.4199 15.6979 12.0838 15.034 12.0838 14.2226V6.84617C12.0838 6.03477 11.4199 5.37089 10.6085 5.37089ZM10.6085 14.2226H1.75678V6.84617H10.6085V14.2226Z" fill="white"/>
</svg>
