<svg width="177" height="177" viewBox="0 0 177 177" fill="none" xmlns="http://www.w3.org/2000/svg">
<g clip-path="url(#clip0)">
<path d="M120.404 13.0635C120.226 13.0635 120.047 13.0189 119.913 12.9295L120.404 13.0635Z" fill="white"/>
<path d="M93.0662 148.861V154.757C93.0662 156.901 91.324 158.643 89.1799 158.643C87.0357 158.643 85.2936 156.901 85.2936 154.757V148.861C85.2936 146.716 87.0357 144.974 89.1799 144.974C91.324 144.974 93.0662 146.716 93.0662 148.861Z" fill="white"/>
<path d="M89.1799 144.528C86.8123 144.528 84.8469 146.448 84.8469 148.861V154.757C84.8469 157.124 86.8123 159.09 89.1799 159.09C91.5474 159.09 93.5128 157.124 93.5128 154.757V148.861C93.5128 146.448 91.5474 144.528 89.1799 144.528ZM93.0661 154.757C93.0661 156.901 91.324 158.643 89.1799 158.643C87.0357 158.643 85.2936 156.901 85.2936 154.757V148.861C85.2936 146.716 87.0357 144.974 89.1799 144.974C91.324 144.974 93.0661 146.716 93.0661 148.861V154.757Z" fill="white"/>
<path d="M46.6093 134.477C46.6093 136.666 44.8672 138.408 42.723 138.408C40.5789 138.408 38.8367 136.666 38.8367 134.521V134.477C38.8367 132.333 40.5789 130.59 42.723 130.59C44.8672 130.59 46.6093 132.333 46.6093 134.477Z" fill="white"/>
<path d="M42.723 130.144C40.3555 130.144 38.39 132.065 38.39 134.477V134.521C38.39 136.889 40.3555 138.854 42.723 138.854C45.0905 138.854 47.056 136.889 47.056 134.521V134.477C47.056 132.065 45.0905 130.144 42.723 130.144ZM46.6093 134.521C46.6093 136.666 44.8672 138.408 42.723 138.408C40.5788 138.408 38.8367 136.666 38.8367 134.521V134.477C38.8367 132.333 40.5788 130.59 42.723 130.59C44.8672 130.59 46.6093 132.333 46.6093 134.521Z" fill="white"/>
<path d="M139.97 135.817C139.97 138.006 138.228 139.748 136.083 139.748C133.939 139.748 132.197 138.006 132.197 135.861V135.817C132.197 133.673 133.939 131.931 136.083 131.931C138.228 131.931 139.97 133.673 139.97 135.817Z" fill="white"/>
<path d="M136.083 131.484C133.716 131.484 131.75 133.405 131.75 135.817V135.861C131.75 138.229 133.716 140.194 136.083 140.194C138.451 140.194 140.416 138.229 140.416 135.861V135.817C140.416 133.405 138.451 131.484 136.083 131.484ZM139.97 135.861C139.97 138.006 138.228 139.748 136.083 139.748C133.939 139.748 132.197 138.006 132.197 135.861V135.817C132.197 133.673 133.939 131.931 136.083 131.931C138.228 131.931 139.97 133.673 139.97 135.861Z" fill="white"/>
<path d="M47.9494 43.7965C47.9494 45.9854 46.2073 47.7275 44.0631 47.7275C41.9189 47.7275 40.1768 45.9854 40.1768 43.8412V43.7965C40.1768 41.6524 41.9189 39.9102 44.0631 39.9102C46.2073 39.9102 47.9494 41.6524 47.9494 43.7965Z" fill="white"/>
<path d="M44.0631 39.4635C41.6956 39.4635 39.7301 41.3843 39.7301 43.7965V43.8412C39.7301 46.2087 41.6956 48.1742 44.0631 48.1742C46.4306 48.1742 48.3961 46.2087 48.3961 43.8412V43.7965C48.3961 41.3843 46.4306 39.4635 44.0631 39.4635ZM47.9494 43.8412C47.9494 45.9854 46.2073 47.7275 44.0631 47.7275C41.9189 47.7275 40.1768 45.9854 40.1768 43.8412V43.7965C40.1768 41.6524 41.9189 39.9102 44.0631 39.9102C46.2073 39.9102 47.9494 41.6524 47.9494 43.8412Z" fill="white"/>
<path d="M93.0662 23.7844V29.6808C93.0662 31.825 91.324 33.5671 89.1799 33.5671C87.0357 33.5671 85.2936 31.825 85.2936 29.6808V23.7844C85.2936 21.6402 87.0357 19.8981 89.1799 19.8981C91.324 19.8981 93.0662 21.6402 93.0662 23.7844Z" fill="white"/>
<path d="M89.1799 19.4514C86.8123 19.4514 84.8469 21.3722 84.8469 23.7844V29.6808C84.8469 32.0483 86.8123 34.0138 89.1799 34.0138C91.5474 34.0138 93.5128 32.0483 93.5128 29.6808V23.7844C93.5128 21.3722 91.5474 19.4514 89.1799 19.4514ZM93.0661 29.6808C93.0661 31.825 91.324 33.5671 89.1799 33.5671C87.0357 33.5671 85.2936 31.825 85.2936 29.6808V23.7844C85.2936 21.6402 87.0357 19.8981 89.1799 19.8981C91.324 19.8981 93.0661 21.6402 93.0661 23.7844V29.6808Z" fill="white"/>
<path d="M33.923 89.2707C33.923 91.4148 32.1809 93.157 30.0367 93.157H24.1403C21.9961 93.157 20.254 91.4148 20.254 89.2707C20.254 87.1265 21.9961 85.3844 24.1403 85.3844H30.0367C32.1809 85.3844 33.923 87.1265 33.923 89.2707Z" fill="white"/>
<path d="M30.0367 84.9377H24.1402C21.7281 84.9377 19.8073 86.8585 19.8073 89.2707C19.8073 91.6382 21.7281 93.6037 24.1402 93.6037H30.0367C32.4489 93.6037 34.3697 91.6382 34.3697 89.2707C34.3697 86.8585 32.4489 84.9377 30.0367 84.9377ZM30.0367 93.157H24.1402C21.9961 93.157 20.254 91.4148 20.254 89.2707C20.254 87.1265 21.9961 85.3844 24.1402 85.3844H30.0367C32.1809 85.3844 33.923 87.1265 33.923 89.2707C33.923 91.4148 32.1809 93.157 30.0367 93.157Z" fill="white"/>
<path d="M158.106 89.2707C158.106 91.4148 156.364 93.157 154.219 93.157H148.323C146.179 93.157 144.437 91.4148 144.437 89.2707C144.437 87.1265 146.179 85.3844 148.323 85.3844H154.219C156.364 85.3844 158.106 87.1265 158.106 89.2707Z" fill="white"/>
<path d="M154.219 84.9377H148.323C145.911 84.9377 143.99 86.8585 143.99 89.2707C143.99 91.6382 145.911 93.6037 148.323 93.6037H154.219C156.632 93.6037 158.552 91.6382 158.552 89.2707C158.552 86.8585 156.632 84.9377 154.219 84.9377ZM154.219 93.157H148.323C146.179 93.157 144.437 91.4148 144.437 89.2707C144.437 87.1265 146.179 85.3844 148.323 85.3844H154.219C156.364 85.3844 158.106 87.1265 158.106 89.2707C158.106 91.4148 156.364 93.157 154.219 93.157Z" fill="white"/>
<path d="M158.955 23.5163L153.773 29.8148L150.333 34.0138L92.1728 104.592C91.2794 105.665 89.984 106.29 88.5992 106.335H88.5099C87.1698 106.335 85.8743 105.754 84.9809 104.771L57.9556 75.0656C56.1688 73.1448 56.3474 70.1072 58.2683 68.3651C58.4023 68.2757 58.4916 68.1417 58.6256 68.0524C58.849 67.8737 59.117 67.695 59.385 67.6057C60.0551 67.293 60.7698 67.1143 61.4845 67.1143C62.1099 67.1143 62.7799 67.2483 63.3606 67.5163C63.4946 67.6057 63.6733 67.6503 63.8073 67.7397C64.254 68.0077 64.6561 68.3204 65.0134 68.6778L88.3312 94.3184L130.455 43.1712L134.967 37.6767L143.588 27.2239L146.983 23.0696L151.629 17.4412C152.567 16.2798 153.907 15.6991 155.292 15.6991C156.364 15.6991 157.436 16.0564 158.329 16.7712C160.339 18.4686 160.652 21.4615 158.955 23.5163Z" fill="white"/>
<path d="M160.473 19.9874C160.339 18.6026 159.669 17.3519 158.597 16.4585C157.659 15.6991 156.498 15.2524 155.292 15.2524C153.728 15.2524 152.254 15.9224 151.271 17.1285L146.626 22.7569L143.231 26.9113L134.609 37.364L130.098 42.8138L88.2865 93.559L65.3261 68.3204C64.9687 67.9184 64.522 67.561 64.0306 67.293C63.8966 67.2036 63.7179 67.159 63.5393 67.0696C62.8692 66.8016 62.1545 66.6229 61.4398 66.6229C60.6357 66.6229 59.8763 66.8016 59.1616 67.159C58.8936 67.293 58.5809 67.4717 58.3129 67.6504C58.1789 67.7397 58.0448 67.8737 57.9108 67.963C56.8834 68.9011 56.3027 70.1965 56.2134 71.5813C56.1687 72.9661 56.6154 74.3062 57.5535 75.3336L84.5788 105.039C85.5616 106.111 86.9464 106.737 88.4205 106.737H88.5545C90.0733 106.692 91.5027 106.022 92.4408 104.816L150.601 34.2371L154.041 30.0382L159.222 23.7397C160.205 22.7123 160.607 21.3722 160.473 19.9874ZM158.954 23.5163L153.773 29.8148L150.333 34.0138L92.1728 104.592C91.2794 105.665 89.9839 106.29 88.5992 106.335H88.5098C87.1697 106.335 85.8743 105.754 84.9809 104.771L57.9555 75.0656C56.1687 73.1448 56.3474 70.1072 58.2682 68.3651C58.4022 68.2757 58.4915 68.1417 58.6256 68.0524C58.8489 67.8737 59.1169 67.695 59.3849 67.6057C60.055 67.293 60.7697 67.1143 61.4844 67.1143C62.1098 67.1143 62.7799 67.2483 63.3606 67.5163C63.4946 67.6057 63.6733 67.6503 63.8073 67.7397C64.254 68.0077 64.656 68.3204 65.0134 68.6778L88.3311 94.3184L130.455 43.1712L134.967 37.6767L143.588 27.2239L146.983 23.0696L151.629 17.4412C152.567 16.2798 153.907 15.6991 155.292 15.6991C156.364 15.6991 157.436 16.0564 158.329 16.7712C160.339 18.4686 160.652 21.4615 158.954 23.5163Z" fill="white"/>
<path d="M176.956 88.6006C176.956 137.112 137.468 176.601 88.9565 176.601C40.4448 176.601 0.956482 137.112 0.956482 88.6006C0.956482 40.0889 40.4448 0.600586 88.9565 0.600586C100.392 0.600586 111.515 2.78942 122.057 7.07774C122.102 7.07774 122.146 7.12241 122.146 7.12241C122.638 7.34576 123.084 7.70312 123.397 8.14982L123.665 8.55185C123.754 8.68586 123.799 8.86454 123.844 8.99856C123.933 9.31125 124.022 9.62394 124.022 9.9813C124.022 11.7234 122.593 13.1082 120.896 13.1082C120.717 13.1082 120.538 13.1082 120.404 13.0635C120.226 13.0189 120.047 12.9742 119.913 12.9295C119.779 12.8849 119.689 12.8402 119.555 12.7955C109.817 8.86454 99.5433 6.85439 88.9565 6.85439C43.8844 6.85439 7.21029 43.5285 7.21029 88.6006C7.21029 133.673 43.8844 170.347 88.9565 170.347C134.029 170.347 170.703 133.673 170.703 88.6006C170.703 78.2818 168.782 68.231 165.03 58.7163C165.03 58.6717 164.985 58.627 164.985 58.5823C164.896 58.3143 164.851 58.0463 164.851 57.7336C164.851 55.9915 166.236 54.6067 167.978 54.6067C168.201 54.6067 168.424 54.6067 168.648 54.6513C169.631 54.8747 170.435 55.5448 170.837 56.4381C170.881 56.5275 170.926 56.6168 170.926 56.7062C170.926 56.7508 170.971 56.7508 170.971 56.7955C174.946 66.9356 176.956 77.6118 176.956 88.6006Z" fill="white"/>
</g>
<defs>
<clipPath id="clip0">
<rect width="176" height="176" fill="white" transform="translate(0.956482 0.600586)"/>
</clipPath>
</defs>
</svg>
