<svg width="5" height="17" viewBox="0 0 5 17" fill="none" xmlns="http://www.w3.org/2000/svg">
<path d="M2.29736 4.5C3.39736 4.5 4.29736 3.6 4.29736 2.5C4.29736 1.4 3.39736 0.5 2.29736 0.5C1.19736 0.5 0.297363 1.4 0.297363 2.5C0.297363 3.6 1.19736 4.5 2.29736 4.5ZM2.29736 6.5C1.19736 6.5 0.297363 7.4 0.297363 8.5C0.297363 9.6 1.19736 10.5 2.29736 10.5C3.39736 10.5 4.29736 9.6 4.29736 8.5C4.29736 7.4 3.39736 6.5 2.29736 6.5ZM2.29736 12.5C1.19736 12.5 0.297363 13.4 0.297363 14.5C0.297363 15.6 1.19736 16.5 2.29736 16.5C3.39736 16.5 4.29736 15.6 4.29736 14.5C4.29736 13.4 3.39736 12.5 2.29736 12.5Z" fill="white"/>
</svg>
