<svg xmlns="http://www.w3.org/2000/svg" viewBox="0 0 500 500"><g id="freepik--Shadow--inject-67"><ellipse id="freepik--path--inject-67" cx="250" cy="416.24" rx="193.89" ry="11.32" style="fill:#f5f5f5"></ellipse></g><g id="freepik--speech-bubble--inject-67"><path d="M369.38,150.55c0-5.85-3.06-11.14-8-14.94a11.5,11.5,0,0,0,.25-2.35c0-7.8-7.93-14.14-17.8-14.32-3-7.55-11.92-13-22.5-13-8.42,0-15.81,3.48-20,8.71a23.84,23.84,0,0,0-3.19-.22c-10.06,0-18.22,6.42-18.22,14.34a11.34,11.34,0,0,0,.7,3.93c-6.41,3.37-10.64,9.11-10.64,15.63,0,6.28,3.92,11.83,9.94,15.24v.2c0,7.69,7.68,14,17.34,14.32,5.32,5.2,13.48,8.53,22.63,8.53a34.37,34.37,0,0,0,17.16-4.42,22.48,22.48,0,0,0,2.48.14c10.06,0,18.22-6.42,18.22-14.34v-.14C364.79,164.06,369.38,157.73,369.38,150.55Z" style="fill:#407BFF"></path><path d="M269.19,192.66c0,1.31-1.52,2.37-3.39,2.37s-3.39-1.06-3.39-2.37,1.52-2.37,3.39-2.37S269.19,191.35,269.19,192.66Z" style="fill:#407BFF"></path><path d="M292.67,187c0,3.79-4.41,6.86-9.85,6.86S273,190.81,273,187s4.41-6.86,9.85-6.86S292.67,183.24,292.67,187Z" style="fill:#407BFF"></path><path d="M369.38,150.55c0-5.85-3.06-11.14-8-14.94a11.5,11.5,0,0,0,.25-2.35c0-7.8-7.93-14.14-17.8-14.32-3-7.55-11.92-13-22.5-13-8.42,0-15.81,3.48-20,8.71a23.84,23.84,0,0,0-3.19-.22c-10.06,0-18.22,6.42-18.22,14.34a11.34,11.34,0,0,0,.7,3.93c-6.41,3.37-10.64,9.11-10.64,15.63,0,6.28,3.92,11.83,9.94,15.24v.2c0,7.69,7.68,14,17.34,14.32,5.32,5.2,13.48,8.53,22.63,8.53a34.37,34.37,0,0,0,17.16-4.42,22.48,22.48,0,0,0,2.48.14c10.06,0,18.22-6.42,18.22-14.34v-.14C364.79,164.06,369.38,157.73,369.38,150.55Z" style="fill:#fff;isolation:isolate;opacity:0.7000000000000001"></path><path d="M269.19,192.66c0,1.31-1.52,2.37-3.39,2.37s-3.39-1.06-3.39-2.37,1.52-2.37,3.39-2.37S269.19,191.35,269.19,192.66Z" style="fill:#fff;isolation:isolate;opacity:0.7000000000000001"></path><path d="M292.67,187c0,3.79-4.41,6.86-9.85,6.86S273,190.81,273,187s4.41-6.86,9.85-6.86S292.67,183.24,292.67,187Z" style="fill:#fff;isolation:isolate;opacity:0.7000000000000001"></path></g><g id="freepik--Symbol--inject-67"><path d="M320.18,120.42c9.73,0,15.75,4.57,15.75,12.7,0,11-11.18,12.41-11.18,20.9H315.1c0-11.17,8.93-11.83,8.93-18.79,0-3-1.89-4.43-5.08-4.43-3.56,0-5.45,2.1-5.52,6.46h-9.94C303.56,126.59,309.8,120.42,320.18,120.42ZM326,165.79a6.21,6.21,0,1,1-12.42,0,6.21,6.21,0,1,1,12.42,0Z" style="fill:#407BFF"></path></g><g id="freepik--Plant--inject-67"><path d="M102.15,353.58s-6.53-7.77-10.7-4.14S89.38,360.75,94.2,361a12.07,12.07,0,0,0,8-2.43Z" style="fill:#407BFF"></path><path d="M102.15,353.58s-6.53-7.77-10.7-4.14S89.38,360.75,94.2,361a12.07,12.07,0,0,0,8-2.43Z" style="fill:#fff;isolation:isolate;opacity:0.2"></path><path d="M128.79,333.88s5.48-5.75,8.88-4.77,3,14.69-7.49,9.14Z" style="fill:#407BFF"></path><path d="M128.79,333.88s5.48-5.75,8.88-4.77,3,14.69-7.49,9.14Z" style="fill:#fff;isolation:isolate;opacity:0.30000000000000004"></path><path d="M109.2,376.73s-18-24.65-3.39-29.64,17.23,19.83,13,26.74S109.2,376.73,109.2,376.73Z" style="fill:#407BFF"></path><path d="M117.56,326.26s11.18-25.95-5.38-26.73-18.36,25.73.69,29.58Z" style="fill:#407BFF"></path><path d="M109.2,376.73s-18-24.65-3.39-29.64,17.23,19.83,13,26.74S109.2,376.73,109.2,376.73Z" style="fill:#fff;isolation:isolate;opacity:0.30000000000000004"></path><path d="M117.56,326.26s11.18-25.95-5.38-26.73-18.36,25.73.69,29.58Z" style="fill:#fff;isolation:isolate;opacity:0.30000000000000004"></path><path d="M113.59,347.51s-5.43-22.91,5-24.74,20.76,18.87-.85,29.28C117.75,352.05,114.05,349.75,113.59,347.51Z" style="fill:#407BFF"></path><path d="M113.59,347.51s-5.43-22.91,5-24.74,20.76,18.87-.85,29.28C117.75,352.05,114.05,349.75,113.59,347.51Z" style="fill:#fff;isolation:isolate;opacity:0.2"></path><path d="M112,324.41c-6.24-4.56-10.55-13.36-6.88-20.78-.15.69-.33,1.44-.5,2.13-1.23,7,2.62,13.74,7.38,18.65Z" style="fill:#407BFF"></path><path d="M108,302.14c7.13,1.39,10.39,9.14,9.52,15.79-.16.94-.3,1.89-.48,2.81a46.13,46.13,0,0,0-.07-5.64c-.45-5.53-3.49-10.93-9-13Z" style="fill:#407BFF"></path><path d="M120.66,324.41c4.38,1.55,6.9,6.54,6.53,11-.36,3.28-2.2,6.23-4.24,8.69a32.17,32.17,0,0,1-5.59,5.29c.92-.9,1.82-1.8,2.65-2.76,2.48-2.8,4.93-5.88,6-9.5a11.19,11.19,0,0,0-5.34-12.77Z" style="fill:#407BFF"></path><path d="M117.56,326.26c1.08,3.35,2,7.37.28,10.67-1.46,2.14-1.61,4.94-1.65,7.49,0,.89,0,1.77.06,2.67a20.42,20.42,0,0,1-.58-5.35,9.63,9.63,0,0,1,1.46-5.26c1.61-3.09.84-6.87.43-10.22Z" style="fill:#407BFF"></path><path d="M110.21,349.44c4.22,2.28,5.89,16.59,5.74,21.27-.13-.93-.27-1.85-.45-2.77-.8-4.58-1.63-9.18-2.84-13.66-.57-1.69-.93-3.74-2.45-4.84Z" style="fill:#407BFF"></path><path d="M105.09,350.23a20.25,20.25,0,0,0,4.11,19.29,21.7,21.7,0,0,1-1.89-1.83,16,16,0,0,1-2.22-17.46Z" style="fill:#407BFF"></path><path d="M133,336.67a9.91,9.91,0,0,0,5-2.39c-.34,2.15-3.07,3.16-5,2.39Z" style="fill:#407BFF"></path><path d="M131.92,332.89c.9-1.84,4-3,5.29-1-1.84-.81-3.64.2-5.29,1Z" style="fill:#407BFF"></path><path d="M99.17,354.74c-2.1-1.48-4.28-4-7-2.69,2.22-2.63,6,.33,7,2.69Z" style="fill:#407BFF"></path><path d="M99.17,358.56c-2.77,1-8.2,1.1-8.59-2.76,1.58,3.14,5.6,2.45,8.59,2.76Z" style="fill:#407BFF"></path><polygon points="86.9 366.56 142.87 366.56 138.19 402.37 91.57 402.37 86.9 366.56" style="fill:#263238"></polygon><g style="opacity:0.2"><polygon points="142.87 366.56 141.23 379.08 141.13 379.87 140.2 386.99 139.96 388.84 139.27 394.11 138.72 398.33 138.19 402.37 91.57 402.37 91.04 398.33 90.49 394.11 89.81 388.84 89.56 386.99 88.64 379.87 88.53 379.08 86.9 366.56 142.87 366.56" style="fill:#fafafa"></polygon></g><polygon points="139.27 394.11 138.72 398.33 91.04 398.33 90.49 394.11 139.27 394.11" style="fill:#fafafa;opacity:0.2"></polygon><polygon points="140.2 386.99 139.96 388.84 89.81 388.84 89.56 386.99 140.2 386.99" style="fill:#fafafa;opacity:0.2"></polygon><polygon points="141.23 379.08 141.13 379.87 88.64 379.87 88.53 379.08 141.23 379.08" style="fill:#fafafa;opacity:0.2"></polygon></g><g id="freepik--Lamp--inject-67"><rect x="371.43" y="348.87" width="11.67" height="23.93" style="fill:#263238"></rect><path d="M410.27,387c0-8.32-6.37-15.6-15.9-19.62v-5.05H360.15v5.05c-9.53,4-15.89,11.3-15.89,19.62a17.6,17.6,0,0,0,3.81,10.7h0v4.24h58.39V397.7A17.6,17.6,0,0,0,410.27,387Z" style="fill:#263238"></path><path d="M410.27,387c0-8.32-6.37-15.6-15.9-19.62v-5.05H360.15v5.05c-9.53,4-15.89,11.3-15.89,19.62a17.6,17.6,0,0,0,3.81,10.7h0v4.24h58.39V397.7A17.6,17.6,0,0,0,410.27,387Z" style="fill:#fafafa;opacity:0.6000000000000001"></path><path d="M395.23,367.17H359.29a2.05,2.05,0,0,1-2.05-2.05V309.51h1v55.61a1,1,0,0,0,1.05,1.05h35.94a1,1,0,0,0,1-1.05V309.51h1v55.61A2.05,2.05,0,0,1,395.23,367.17Z" style="fill:#263238"></path><polygon points="412.25 355.8 342.28 355.8 357.63 296.38 396.9 296.38 412.25 355.8" style="fill:#407BFF"></polygon><rect x="348.07" y="397.69" width="58.39" height="4.24" style="opacity:0.2"></rect><rect x="360.15" y="362.32" width="34.22" height="5.05" style="opacity:0.2"></rect><polygon points="412.25 355.8 342.28 355.8 357.63 296.38 396.9 296.38 412.25 355.8" style="fill:#fafafa;opacity:0.6000000000000001"></polygon></g><g id="freepik--Character--inject-67"><path d="M268.94,269.8c8.86,11.51,18.31,23.6,29.75,32.35a22.74,22.74,0,0,0,6.77,3.65c.17.05,0,.14-.2.28s-.12.12-.12.2-.31.28-.39.35a5.73,5.73,0,0,0-1.79,3.68c0,.28.06.26.06.08-.61-4.6-3.4-9.13-5.76-13.42-9.55-16.13-21.56-31.2-33.09-46.2l9-8.82a303.45,303.45,0,0,1,28.6,27.76c6.88,7.7,13.6,15.78,18.82,25.07,5.19,8.89,8.29,21.5-.95,29.33a22.76,22.76,0,0,1-14.59,5.31c-17.5-.24-33.5-16.74-44.23-28.6a180.66,180.66,0,0,1-12.79-16.39l20.88-14.63Z" style="fill:#dc897c"></path><path d="M243.5,231.38l10.55-.51a5.66,5.66,0,0,1,3.32.9l16.34,10.59L271,253.75c-10.18,6.42-18.87.52-21.53-1.67a5.43,5.43,0,0,0-2.11-1.08l-5.78-1.55a5.62,5.62,0,0,1-4.14-6l.72-7A5.62,5.62,0,0,1,243.5,231.38Z" style="fill:#e4897b"></path><path d="M299.92,302.13l-10.58,33.71s-1.19-.63-3.13-1.72c-5.11-2.87-15.45-8.89-23.09-14.86-4.44-3.46-8-6.9-9-9.7-3.55-9.4,17.58-42.73,17.58-42.73,6.64,1.66,14.7,13.7,14.7,13.7S297.37,296,299.92,302.13Z" style="fill:#407BFF"></path><path d="M286.21,334.12c-5.11-2.87-15.45-8.89-23.09-14.86a60.48,60.48,0,0,1,1.09-14.18S281.19,314.7,286.21,334.12Z" style="opacity:0.2"></path><path d="M271.69,266.84s20.48,52.76.67,150.89L179,417.5c-.61-14.33,5.88-81.43-7.78-149,0,0,3.83-4.68,33.95-6.67,11.92-.79,29.21-.88,39.69.1A174.33,174.33,0,0,1,271.69,266.84Z" style="fill:#263238"></path><path d="M280.79,348.6c-.13,3.57-.31,7.24-.55,11-.21,3.07-.44,6.22-.72,9.44-.35,3.84-.75,7.79-1.25,11.84q-.57,5-1.3,10.12-.89,6.23-2,12.74c-.78,4.54-1.64,9.2-2.61,14L179,417.51c-.14-3.12.06-8.74.32-16.31.11-3,.22-6.38.33-10,.07-2.63.14-5.43.2-8.34.06-3.24.12-6.65.14-10.22q0-4.15,0-8.58c0-3.41-.05-6.93-.13-10.54,0-2.68-.12-5.4-.21-8.17-.33-9.85-.92-20.28-1.9-31.07a426,426,0,0,0-6.55-45.78s3.84-4.68,34-6.67c11.92-.79,29.2-.89,39.7.1a176.06,176.06,0,0,1,26.83,4.91S282.65,295.05,280.79,348.6Z" style="fill:#fafafa;opacity:0.6000000000000001"></path><path d="M189.38,310s-.83,22.28-9.73,35.37c-.33-9.85-.92-20.28-1.9-31.07C181.4,311.51,185.37,309.86,189.38,310Z" style="opacity:0.2"></path><g style="opacity:0.6000000000000001"><path d="M280.79,348.6c-.13,3.57-.31,7.24-.55,11l-9.8,11.54-14.08-16.56L242.3,371.17l-14.07-16.56-14.07,16.56-14.07-16.56L186,371.17l-6-7.11c0-3.41-.05-6.93-.13-10.54l6.17,7.26,14.06-16.57,14.07,16.57,14.07-16.57,14.07,16.57,14.06-16.57,14.08,16.57Z" style="fill:#fafafa"></path></g><g style="opacity:0.6000000000000001"><path d="M279.52,369.07c-.35,3.84-.75,7.79-1.25,11.84l-7.83,9.24-14.08-16.57L242.3,390.15l-14.07-16.57-14.07,16.57-14.07-16.57L186,390.15l-6.19-7.29c.06-3.24.12-6.65.14-10.22l6.05,7.11,14.06-16.56,14.07,16.56,14.07-16.56,14.07,16.56,14.06-16.56,14.08,16.56Z" style="fill:#fafafa"></path></g><g style="opacity:0.6000000000000001"><path d="M277,391q-.89,6.23-2,12.74l-4.53,5.34-14.08-16.55L242.3,409.11l-14.07-16.55-14.07,16.55-14.07-16.55L186,409.11l-6.72-7.91c.11-3,.22-6.38.33-10l6.39,7.53,14.06-16.57,14.07,16.57,14.07-16.57,14.07,16.57,14.06-16.57,14.08,16.57Z" style="fill:#fafafa"></path></g><path d="M204,220.64c3.68,12.49,8.35,35.55.25,44.87,12.67,4,21.79,6.7,33,15,2.94-8.15,6.53-18.72,6.53-18.72-14.5-2.06-15.12-12.61-13.57-22.72Z" style="fill:#e4897b"></path><path d="M214.64,228.17l15.51,10.91a39.33,39.33,0,0,0-.56,7.12c-5.49-.27-13.49-5.52-14.6-11.14A19.1,19.1,0,0,1,214.64,228.17Z" style="opacity:0.2"></path><polygon points="193.35 262.78 202.3 254.37 226.28 262.6 236.76 278.71 240.67 262.38 246.09 257.49 255.58 263.3 254.11 273.65 247.25 270.29 238.96 283.86 220.43 272.98 215.26 277.94 193.35 262.78" style="fill:#407BFF"></polygon><polygon points="238.96 283.86 243.8 266.9 254.11 273.65 247.25 270.29 238.96 283.86" style="opacity:0.2"></polygon><polygon points="238.96 283.86 222.63 267.86 215.26 277.94 220.43 272.98 238.96 283.86" style="opacity:0.2"></polygon><path d="M199.46,295.5c6,7.23,14.2,17.27,20.28,24.17,7.25,8.06,14.46,16.62,23.23,22.8.34.21-.05,0-.22,0a1,1,0,0,0-.29-.06c-.08,0,0,0,0,.05,3.94.87,8.37-.05,12.58-.62,12.83-2.16,25.45-5.79,38.3-9.1l5.05,11.57c-4.87,3-9.72,5.55-14.76,8C271,358.23,248,368.92,234.06,363.68a62.53,62.53,0,0,1-14.27-9.16,202.06,202.06,0,0,1-18.8-17.8c-5.77-6.13-11.23-12.4-16.49-18.94-1.77-2.18-3.43-4.32-5.19-6.66l20.15-15.62Z" style="fill:#dc897c"></path><path d="M162.94,280.06c-10.23,32.42,35.73,64.16,35.73,64.16l24.56-27.92s-10.82-20-23.08-37.78C187.32,259.92,168.33,263,162.94,280.06Z" style="fill:#407BFF"></path><path d="M291.33,334.24l17.28-17.94,13.06,17.42S311.36,348,297.33,344.28Z" style="fill:#e4897b"></path><polygon points="325.46 310.8 332.09 326.12 321.67 333.72 308.61 316.3 325.46 310.8" style="fill:#e4897b"></polygon><path d="M237.35,174.25c8.89,3.49,15,27.73,4.19,33.57S220.5,167.65,237.35,174.25Z" style="fill:#263238"></path><path d="M199,202.78c4.6,17,6.44,27.09,17,34.4,15.84,11,35.5-.5,36.07-18.31.52-16-7.1-41.09-25.4-45C208.65,170,194.42,185.82,199,202.78Z" style="fill:#e4897b"></path><path d="M214.18,180.92,212.3,166a19.9,19.9,0,0,1-12.05,2.26c-18-3.09-30.85,9.1-22,18.54-8.14,4.13-2.82,15.31,3.22,22.27,8.39,9.69,17,14,22.4,9,5-2.81,4.72-20.57,2.63-27C203.34,181.33,214.18,180.92,214.18,180.92Z" style="fill:#263238"></path><path d="M196,220.88a18.85,18.85,0,0,0,11.22,5.92c5.45.65,6.41-4.43,3.42-9.13-2.7-4.23-8.79-9.66-13.55-8.14S192.27,216.85,196,220.88Z" style="fill:#e4897b"></path><path d="M225.05,203.1c.29,1.39,1.27,2.4,2.19,2.24s1.43-1.42,1.14-2.81-1.27-2.4-2.19-2.25S224.77,201.7,225.05,203.1Z" style="fill:#263238"></path><path d="M240.93,200.38c.29,1.4,1.26,2.4,2.18,2.24s1.43-1.41,1.14-2.81-1.27-2.4-2.18-2.24S240.64,199,240.93,200.38Z" style="fill:#263238"></path><path d="M237.15,201.94s4.86,7.5,9.18,10.79c-2,2.73-6.45,2.4-6.45,2.4Z" style="fill:#de5753"></path><path d="M230.14,195.78a.81.81,0,0,1,.34.25.84.84,0,0,1-.15,1.18,8,8,0,0,1-7.41,1.45.82.82,0,0,1-.5-1.07.84.84,0,0,1,1.07-.5,6.34,6.34,0,0,0,5.81-1.2A.81.81,0,0,1,230.14,195.78Z" style="fill:#263238"></path><path d="M245.51,192.77a.82.82,0,0,1-.76-.18,7.06,7.06,0,0,0-5.91-1.81.84.84,0,1,1-.41-1.62h0a8.62,8.62,0,0,1,7.41,2.18.84.84,0,0,1,.08,1.18A.88.88,0,0,1,245.51,192.77Z" style="fill:#263238"></path><path d="M199.3,170.21s12.42-24,35.54-19.09c0,0-4.42,1-6.3,2.67,0,0,20.18-1.76,26.47,12.42l-3.86-2.27s5.14,11.75-.88,19.49l-1.13-3.89s-8.26,10.25-20.59,7.34l4.26-2.16s-21.24-.65-26.5-6.07S199.3,170.21,199.3,170.21Z" style="fill:#263238"></path><path d="M242,222.46a.7.7,0,0,1-.5-.21c-3.13-3.39-8.62-2.09-8.67-2.08a.68.68,0,0,1-.33-1.31c.26-.06,6.31-1.5,10,2.47a.68.68,0,0,1,0,.95A.69.69,0,0,1,242,222.46Z" style="fill:#263238"></path></g><g id="freepik--Table--inject-67"><rect x="76.8" y="401.93" width="338.98" height="15.8" style="fill:#407BFF"></rect><rect x="76.8" y="401.93" width="338.98" height="15.8" style="fill:#fafafa;opacity:0.2"></rect><path d="M420.85,401.93H72.7a4,4,0,0,0-4,3.95h0a4,4,0,0,0,4,3.95H420.85a4,4,0,0,0,3.95-3.95h0A4,4,0,0,0,420.85,401.93Z" style="fill:#407BFF"></path><path d="M420.85,401.93H72.7a4,4,0,0,0-4,3.95h0a4,4,0,0,0,4,3.95H420.85a4,4,0,0,0,3.95-3.95h0A4,4,0,0,0,420.85,401.93Z" style="fill:#fafafa;opacity:0.4"></path></g></svg>